STARTFONT 2.1
COMMENT ======================================================================
COMMENT Font Status: Complete.
COMMENT              The font name is subject to change later.
COMMENT ***********
COMMENT uni12b.bdf is a unicoded addressed font containing only Latin and 
COMMENT Ethiopic elements.  The font is developed for experimental use with
COMMENT UXterm.  See the file UXTERM in this directory for information on UXterm.
COMMENT
COMMENT The Latin font is of a medium typeface with origins from Adobe's contribution
COMMENT to X11.  The Ethiopic font is of medium weight and is adapted from
COMMENT ethiomx12-uni.bdf.
COMMENT ***********
COMMENT This Is The Unicode Ordered & Addressed Ethiopic Font Based On UTC-95-055A.
COMMENT Extension candidates are added in 4 rows at the end in a compressed 16
COMMENT column format. SERA character names are given for alphabetic elements;
COMMENT punctuations and numbers are named descriptively.
COMMENT Unicode encoding begins at hex 1200 / dec 4608
COMMENT ***********
COMMENT Another Fine Admas Product : fisseha@cig.mot.com
COMMENT Available at ftp://ftp.cs.indiana.edu/pub/fidel/fonts/ethiomx12-uni.bdf
COMMENT See also ftp://ftp.cs.indiana.edu/pub/fidel/info/unicode.ps
COMMENT ======================================================================
FONT -Admas-UXterm12-Medium-R-Normal--12-120-100-100-m-104-Ethiopic-Unicode
SIZE 12 100 100
FONTBOUNDINGBOX 16 16 0 -3
STARTPROPERTIES 4
COPYRIGHT "Roman: Copyright (c) 1984, 1987 Adobe Systems Incorporated; Ethiopic:- GNU CopyLeft"
FONT_ASCENT 12
FONT_DESCENT 3
DEFAULT_CHAR 32
ENDPROPERTIES
CHARS 603
STARTCHAR 0
ENCODING 32
SWIDTH 560 0
DWIDTH 7 0
BBX 1 1 0 0
BITMAP
00
ENDCHAR
STARTCHAR 1
ENCODING 33
SWIDTH 560 0
DWIDTH 7 0
BBX 1 9 3 0
BITMAP
80
80
80
80
80
80
80
00
80
ENDCHAR
STARTCHAR 2
ENCODING 34
SWIDTH 560 0
DWIDTH 7 0
BBX 3 3 2 5
BITMAP
a0
a0
a0
ENDCHAR
STARTCHAR 3
ENCODING 35
SWIDTH 560 0
DWIDTH 7 0
BBX 7 8 0 0
BITMAP
14
14
7e
28
28
fc
50
50
ENDCHAR
STARTCHAR 4
ENCODING 36
SWIDTH 560 0
DWIDTH 7 0
BBX 5 10 1 -1
BITMAP
20
70
88
80
60
30
88
88
70
20
ENDCHAR
STARTCHAR 5
ENCODING 37
SWIDTH 560 0
DWIDTH 7 0
BBX 6 8 1 0
BITMAP
60
90
64
18
60
98
24
18
ENDCHAR
STARTCHAR 6
ENCODING 38
SWIDTH 560 0
DWIDTH 7 0
BBX 7 8 0 0
BITMAP
38
48
40
22
74
88
8c
72
ENDCHAR
STARTCHAR 7
ENCODING 39
SWIDTH 560 0
DWIDTH 7 0
BBX 2 3 2 5
BITMAP
40
40
80
ENDCHAR
STARTCHAR 8
ENCODING 40
SWIDTH 560 0
DWIDTH 7 0
BBX 3 11 3 -2
BITMAP
20
40
40
80
80
80
80
80
40
40
20
ENDCHAR
STARTCHAR 9
ENCODING 41
SWIDTH 560 0
DWIDTH 7 0
BBX 3 11 1 -2
BITMAP
80
40
40
20
20
20
20
20
40
40
80
ENDCHAR
STARTCHAR 10
ENCODING 42
SWIDTH 560 0
DWIDTH 7 0
BBX 5 5 1 3
BITMAP
20
20
f8
20
50
ENDCHAR
STARTCHAR 11
ENCODING 43
SWIDTH 560 0
DWIDTH 7 0
BBX 5 5 1 1
BITMAP
20
20
f8
20
20
ENDCHAR
STARTCHAR 12
ENCODING 44
SWIDTH 560 0
DWIDTH 7 0
BBX 2 3 1 -1
BITMAP
40
40
80
ENDCHAR
STARTCHAR 13
ENCODING 45
SWIDTH 560 0
DWIDTH 7 0
BBX 5 1 1 3
BITMAP
f8
ENDCHAR
STARTCHAR 14
ENCODING 46
SWIDTH 560 0
DWIDTH 7 0
BBX 1 1 2 0
BITMAP
80
ENDCHAR
STARTCHAR 15
ENCODING 47
SWIDTH 560 0
DWIDTH 7 0
BBX 6 10 1 -1
BITMAP
04
08
08
10
10
20
20
40
40
80
ENDCHAR
STARTCHAR 16
ENCODING 48
SWIDTH 560 0
DWIDTH 7 0
BBX 5 9 1 0
BITMAP
70
88
88
88
88
88
88
88
70
ENDCHAR
STARTCHAR 17
ENCODING 49
SWIDTH 560 0
DWIDTH 7 0
BBX 5 9 1 0
BITMAP
20
e0
20
20
20
20
20
20
f8
ENDCHAR
STARTCHAR 18
ENCODING 50
SWIDTH 560 0
DWIDTH 7 0
BBX 5 9 1 0
BITMAP
70
88
88
88
10
20
40
88
f8
ENDCHAR
STARTCHAR 19
ENCODING 51
SWIDTH 560 0
DWIDTH 7 0
BBX 5 9 1 0
BITMAP
70
88
08
08
30
08
08
88
70
ENDCHAR
STARTCHAR 20
ENCODING 52
SWIDTH 560 0
DWIDTH 7 0
BBX 6 9 0 0
BITMAP
08
18
28
28
48
88
fc
08
1c
ENDCHAR
STARTCHAR 21
ENCODING 53
SWIDTH 560 0
DWIDTH 7 0
BBX 6 9 0 0
BITMAP
7c
40
40
40
78
04
04
84
78
ENDCHAR
STARTCHAR 22
ENCODING 54
SWIDTH 560 0
DWIDTH 7 0
BBX 5 9 1 0
BITMAP
38
40
80
80
f0
88
88
88
70
ENDCHAR
STARTCHAR 23
ENCODING 55
SWIDTH 560 0
DWIDTH 7 0
BBX 5 9 1 0
BITMAP
f8
88
10
10
10
10
20
20
20
ENDCHAR
STARTCHAR 24
ENCODING 56
SWIDTH 560 0
DWIDTH 7 0
BBX 5 9 1 0
BITMAP
70
88
88
88
70
88
88
88
70
ENDCHAR
STARTCHAR 25
ENCODING 57
SWIDTH 560 0
DWIDTH 7 0
BBX 5 9 1 0
BITMAP
70
88
88
88
88
78
08
10
e0
ENDCHAR
STARTCHAR 26
ENCODING 58
SWIDTH 560 0
DWIDTH 7 0
BBX 1 5 3 0
BITMAP
80
00
00
00
80
ENDCHAR
STARTCHAR 27
ENCODING 59
SWIDTH 560 0
DWIDTH 7 0
BBX 2 6 2 -1
BITMAP
40
00
00
40
40
80
ENDCHAR
STARTCHAR 28
ENCODING 60
SWIDTH 560 0
DWIDTH 7 0
BBX 4 7 1 0
BITMAP
10
20
40
80
40
20
10
ENDCHAR
STARTCHAR 29
ENCODING 61
SWIDTH 560 0
DWIDTH 7 0
BBX 5 3 1 2
BITMAP
f8
00
f8
ENDCHAR
STARTCHAR 30
ENCODING 62
SWIDTH 560 0
DWIDTH 7 0
BBX 4 7 2 0
BITMAP
80
40
20
10
20
40
80
ENDCHAR
STARTCHAR 31
ENCODING 63
SWIDTH 560 0
DWIDTH 7 0
BBX 5 8 1 0
BITMAP
70
88
08
10
20
20
00
20
ENDCHAR
STARTCHAR 32
ENCODING 64
SWIDTH 560 0
DWIDTH 7 0
BBX 6 8 1 0
BITMAP
70
88
98
a8
a8
9c
80
70
ENDCHAR
STARTCHAR 33
ENCODING 65
SWIDTH 560 0
DWIDTH 7 0
BBX 7 8 0 0
BITMAP
70
10
28
28
7c
44
44
ee
ENDCHAR
STARTCHAR 34
ENCODING 66
SWIDTH 560 0
DWIDTH 7 0
BBX 6 8 0 0
BITMAP
f8
44
44
78
44
44
44
f8
ENDCHAR
STARTCHAR 35
ENCODING 67
SWIDTH 560 0
DWIDTH 7 0
BBX 5 8 1 0
BITMAP
70
88
88
80
80
88
88
70
ENDCHAR
STARTCHAR 36
ENCODING 68
SWIDTH 560 0
DWIDTH 7 0
BBX 6 8 0 0
BITMAP
f8
44
44
44
44
44
44
f8
ENDCHAR
STARTCHAR 37
ENCODING 69
SWIDTH 560 0
DWIDTH 7 0
BBX 6 8 0 0
BITMAP
fc
44
50
70
50
40
44
fc
ENDCHAR
STARTCHAR 38
ENCODING 70
SWIDTH 560 0
DWIDTH 7 0
BBX 6 8 0 0
BITMAP
fc
44
54
70
50
40
40
f0
ENDCHAR
STARTCHAR 39
ENCODING 71
SWIDTH 560 0
DWIDTH 7 0
BBX 5 8 1 0
BITMAP
70
88
88
80
98
88
88
70
ENDCHAR
STARTCHAR 40
ENCODING 72
SWIDTH 560 0
DWIDTH 7 0
BBX 7 8 0 0
BITMAP
ee
44
44
7c
44
44
44
ee
ENDCHAR
STARTCHAR 41
ENCODING 73
SWIDTH 560 0
DWIDTH 7 0
BBX 5 8 1 0
BITMAP
f8
20
20
20
20
20
20
f8
ENDCHAR
STARTCHAR 42
ENCODING 74
SWIDTH 560 0
DWIDTH 7 0
BBX 5 8 1 0
BITMAP
78
10
10
10
10
90
90
60
ENDCHAR
STARTCHAR 43
ENCODING 75
SWIDTH 560 0
DWIDTH 7 0
BBX 7 8 0 0
BITMAP
ec
48
50
60
70
48
44
e6
ENDCHAR
STARTCHAR 44
ENCODING 76
SWIDTH 560 0
DWIDTH 7 0
BBX 6 8 0 0
BITMAP
e0
40
40
40
40
44
44
fc
ENDCHAR
STARTCHAR 45
ENCODING 77
SWIDTH 560 0
DWIDTH 7 0
BBX 7 8 0 0
BITMAP
c6
6c
6c
54
54
54
44
ee
ENDCHAR
STARTCHAR 46
ENCODING 78
SWIDTH 560 0
DWIDTH 7 0
BBX 7 8 0 0
BITMAP
ce
64
64
54
54
4c
4c
e4
ENDCHAR
STARTCHAR 47
ENCODING 79
SWIDTH 560 0
DWIDTH 7 0
BBX 5 8 1 0
BITMAP
70
88
88
88
88
88
88
70
ENDCHAR
STARTCHAR 48
ENCODING 80
SWIDTH 560 0
DWIDTH 7 0
BBX 6 8 0 0
BITMAP
f8
4c
44
4c
78
40
40
f0
ENDCHAR
STARTCHAR 49
ENCODING 81
SWIDTH 560 0
DWIDTH 7 0
BBX 5 9 1 -1
BITMAP
70
88
88
88
88
88
88
70
18
ENDCHAR
STARTCHAR 50
ENCODING 82
SWIDTH 560 0
DWIDTH 7 0
BBX 7 8 0 0
BITMAP
f8
44
44
78
48
44
44
e6
ENDCHAR
STARTCHAR 51
ENCODING 83
SWIDTH 560 0
DWIDTH 7 0
BBX 5 8 1 0
BITMAP
78
88
80
e0
38
08
88
f0
ENDCHAR
STARTCHAR 52
ENCODING 84
SWIDTH 560 0
DWIDTH 7 0
BBX 7 8 0 0
BITMAP
fe
92
92
10
10
10
10
7c
ENDCHAR
STARTCHAR 53
ENCODING 85
SWIDTH 560 0
DWIDTH 7 0
BBX 7 8 0 0
BITMAP
ee
44
44
44
44
44
6c
38
ENDCHAR
STARTCHAR 54
ENCODING 86
SWIDTH 560 0
DWIDTH 7 0
BBX 7 8 0 0
BITMAP
ee
44
44
6c
28
28
38
10
ENDCHAR
STARTCHAR 55
ENCODING 87
SWIDTH 560 0
DWIDTH 7 0
BBX 7 8 0 0
BITMAP
ee
44
54
54
54
6c
28
28
ENDCHAR
STARTCHAR 56
ENCODING 88
SWIDTH 560 0
DWIDTH 7 0
BBX 7 8 0 0
BITMAP
ee
44
28
10
28
28
44
ee
ENDCHAR
STARTCHAR 57
ENCODING 89
SWIDTH 560 0
DWIDTH 7 0
BBX 7 8 0 0
BITMAP
ee
44
28
28
10
10
10
38
ENDCHAR
STARTCHAR 58
ENCODING 90
SWIDTH 560 0
DWIDTH 7 0
BBX 5 8 1 0
BITMAP
f8
88
90
20
20
48
88
f8
ENDCHAR
STARTCHAR 59
ENCODING 91
SWIDTH 560 0
DWIDTH 7 0
BBX 2 11 3 -2
BITMAP
c0
80
80
80
80
80
80
80
80
80
c0
ENDCHAR
STARTCHAR 60
ENCODING 92
SWIDTH 560 0
DWIDTH 7 0
BBX 6 10 1 -1
BITMAP
80
40
40
20
20
10
10
08
08
04
ENDCHAR
STARTCHAR 61
ENCODING 93
SWIDTH 560 0
DWIDTH 7 0
BBX 2 11 2 -2
BITMAP
c0
40
40
40
40
40
40
40
40
40
c0
ENDCHAR
STARTCHAR 62
ENCODING 94
SWIDTH 560 0
DWIDTH 7 0
BBX 5 3 1 5
BITMAP
20
50
88
ENDCHAR
STARTCHAR 63
ENCODING 95
SWIDTH 560 0
DWIDTH 7 0
BBX 7 1 0 -3
BITMAP
fe
ENDCHAR
STARTCHAR 64
ENCODING 96
SWIDTH 560 0
DWIDTH 7 0
BBX 2 3 3 5
BITMAP
80
80
40
ENDCHAR
STARTCHAR 65
ENCODING 97
SWIDTH 560 0
DWIDTH 7 0
BBX 6 6 1 0
BITMAP
f0
08
78
88
88
74
ENDCHAR
STARTCHAR 66
ENCODING 98
SWIDTH 560 0
DWIDTH 7 0
BBX 6 9 0 0
BITMAP
c0
40
40
78
44
44
44
44
b8
ENDCHAR
STARTCHAR 67
ENCODING 99
SWIDTH 560 0
DWIDTH 7 0
BBX 5 6 1 0
BITMAP
70
88
80
80
88
70
ENDCHAR
STARTCHAR 68
ENCODING 100
SWIDTH 560 0
DWIDTH 7 0
BBX 6 9 1 0
BITMAP
18
08
08
78
88
88
88
88
74
ENDCHAR
STARTCHAR 69
ENCODING 101
SWIDTH 560 0
DWIDTH 7 0
BBX 5 6 1 0
BITMAP
70
88
f8
80
88
70
ENDCHAR
STARTCHAR 70
ENCODING 102
SWIDTH 560 0
DWIDTH 7 0
BBX 5 9 1 0
BITMAP
38
40
40
f8
40
40
40
40
f0
ENDCHAR
STARTCHAR 71
ENCODING 103
SWIDTH 560 0
DWIDTH 7 0
BBX 6 9 1 -3
BITMAP
74
88
88
88
88
78
08
08
70
ENDCHAR
STARTCHAR 72
ENCODING 104
SWIDTH 560 0
DWIDTH 7 0
BBX 7 9 0 0
BITMAP
c0
40
40
58
64
44
44
44
ee
ENDCHAR
STARTCHAR 73
ENCODING 105
SWIDTH 560 0
DWIDTH 7 0
BBX 5 9 1 0
BITMAP
20
00
00
e0
20
20
20
20
f8
ENDCHAR
STARTCHAR 74
ENCODING 106
SWIDTH 560 0
DWIDTH 7 0
BBX 4 12 1 -3
BITMAP
10
00
00
f0
10
10
10
10
10
10
10
e0
ENDCHAR
STARTCHAR 75
ENCODING 107
SWIDTH 560 0
DWIDTH 7 0
BBX 7 9 0 0
BITMAP
c0
40
40
4c
50
60
50
48
c6
ENDCHAR
STARTCHAR 76
ENCODING 108
SWIDTH 560 0
DWIDTH 7 0
BBX 6 9 1 0
BITMAP
e0
20
20
20
20
20
20
20
fc
ENDCHAR
STARTCHAR 77
ENCODING 109
SWIDTH 560 0
DWIDTH 7 0
BBX 7 6 0 0
BITMAP
e8
54
54
54
54
d6
ENDCHAR
STARTCHAR 78
ENCODING 110
SWIDTH 560 0
DWIDTH 7 0
BBX 7 6 0 0
BITMAP
b8
64
44
44
44
e6
ENDCHAR
STARTCHAR 79
ENCODING 111
SWIDTH 560 0
DWIDTH 7 0
BBX 5 6 1 0
BITMAP
70
88
88
88
88
70
ENDCHAR
STARTCHAR 80
ENCODING 112
SWIDTH 560 0
DWIDTH 7 0
BBX 6 9 0 -3
BITMAP
b8
44
44
44
44
78
40
40
e0
ENDCHAR
STARTCHAR 81
ENCODING 113
SWIDTH 560 0
DWIDTH 7 0
BBX 6 9 1 -3
BITMAP
74
88
88
88
88
78
08
08
1c
ENDCHAR
STARTCHAR 82
ENCODING 114
SWIDTH 560 0
DWIDTH 7 0
BBX 5 6 1 0
BITMAP
b8
40
40
40
40
f0
ENDCHAR
STARTCHAR 83
ENCODING 115
SWIDTH 560 0
DWIDTH 7 0
BBX 5 6 1 0
BITMAP
70
88
70
08
88
70
ENDCHAR
STARTCHAR 84
ENCODING 116
SWIDTH 560 0
DWIDTH 7 0
BBX 6 8 1 0
BITMAP
40
40
f8
40
40
40
44
38
ENDCHAR
STARTCHAR 85
ENCODING 117
SWIDTH 560 0
DWIDTH 7 0
BBX 7 6 0 0
BITMAP
cc
44
44
44
44
3a
ENDCHAR
STARTCHAR 86
ENCODING 118
SWIDTH 560 0
DWIDTH 7 0
BBX 7 6 0 0
BITMAP
ee
44
44
28
38
10
ENDCHAR
STARTCHAR 87
ENCODING 119
SWIDTH 560 0
DWIDTH 7 0
BBX 7 6 0 0
BITMAP
ee
44
54
54
28
28
ENDCHAR
STARTCHAR 88
ENCODING 120
SWIDTH 560 0
DWIDTH 7 0
BBX 7 6 0 0
BITMAP
ee
28
10
28
44
c6
ENDCHAR
STARTCHAR 89
ENCODING 121
SWIDTH 560 0
DWIDTH 7 0
BBX 7 9 0 -3
BITMAP
ee
44
44
28
38
10
10
10
60
ENDCHAR
STARTCHAR 90
ENCODING 122
SWIDTH 560 0
DWIDTH 7 0
BBX 5 6 1 0
BITMAP
f8
90
20
40
88
f8
ENDCHAR
STARTCHAR 91
ENCODING 123
SWIDTH 560 0
DWIDTH 7 0
BBX 3 10 2 -2
BITMAP
20
40
40
40
80
40
40
40
40
20
ENDCHAR
STARTCHAR 92
ENCODING 124
SWIDTH 560 0
DWIDTH 7 0
BBX 1 10 3 -2
BITMAP
80
80
80
80
80
80
80
80
80
80
ENDCHAR
STARTCHAR 93
ENCODING 125
SWIDTH 560 0
DWIDTH 7 0
BBX 3 10 2 -2
BITMAP
80
40
40
40
20
40
40
40
40
80
ENDCHAR
STARTCHAR 94
ENCODING 126
SWIDTH 560 0
DWIDTH 7 0
BBX 5 3 1 2
BITMAP
48
a8
90
ENDCHAR
STARTCHAR 128
ENCODING 160
SWIDTH 560 0
DWIDTH 7 0
BBX 1 1 0 0
BITMAP
00
ENDCHAR
STARTCHAR 129
ENCODING 161
SWIDTH 560 0
DWIDTH 7 0
BBX 1 9 3 -3
BITMAP
80
00
00
80
80
80
80
80
80
ENDCHAR
STARTCHAR 130
ENCODING 162
SWIDTH 560 0
DWIDTH 7 0
BBX 5 9 1 -1
BITMAP
20
20
70
a8
a0
a8
70
20
20
ENDCHAR
STARTCHAR 131
ENCODING 163
SWIDTH 560 0
DWIDTH 7 0
BBX 6 8 1 0
BITMAP
30
48
40
f8
20
20
44
f8
ENDCHAR
STARTCHAR 132
ENCODING 164
SWIDTH 560 0
DWIDTH 7 0
BBX 6 6 0 1
BITMAP
84
78
48
48
78
84
ENDCHAR
STARTCHAR 133
ENCODING 165
SWIDTH 560 0
DWIDTH 7 0
BBX 7 8 0 0
BITMAP
ee
44
28
7c
10
7c
10
38
ENDCHAR
STARTCHAR 134
ENCODING 166
SWIDTH 560 0
DWIDTH 7 0
BBX 1 10 3 -2
BITMAP
80
80
80
80
00
00
80
80
80
80
ENDCHAR
STARTCHAR 135
ENCODING 167
SWIDTH 560 0
DWIDTH 7 0
BBX 5 10 1 -1
BITMAP
78
48
60
90
88
48
30
90
90
f0
ENDCHAR
STARTCHAR 136
ENCODING 168
SWIDTH 560 0
DWIDTH 7 0
BBX 3 1 2 7
BITMAP
a0
ENDCHAR
STARTCHAR 137
ENCODING 169
SWIDTH 560 0
DWIDTH 7 0
BBX 7 8 0 0
BITMAP
38
44
9a
a2
a2
9a
44
38
ENDCHAR
STARTCHAR 138
ENCODING 170
SWIDTH 560 0
DWIDTH 7 0
BBX 4 6 1 2
BITMAP
60
10
70
50
00
f0
ENDCHAR
STARTCHAR 139
ENCODING 171
SWIDTH 560 0
DWIDTH 7 0
BBX 6 5 0 1
BITMAP
24
48
90
48
24
ENDCHAR
STARTCHAR 140
ENCODING 172
SWIDTH 560 0
DWIDTH 7 0
BBX 5 3 1 2
BITMAP
f8
08
08
ENDCHAR
STARTCHAR 141
ENCODING 173
SWIDTH 560 0
DWIDTH 7 0
BBX 5 1 1 3
BITMAP
f8
ENDCHAR
STARTCHAR 142
ENCODING 174
SWIDTH 560 0
DWIDTH 7 0
BBX 7 8 0 0
BITMAP
38
44
ba
aa
b2
aa
44
38
ENDCHAR
STARTCHAR 143
ENCODING 175
SWIDTH 560 0
DWIDTH 7 0
BBX 5 1 1 7
BITMAP
f8
ENDCHAR
STARTCHAR 144
ENCODING 176
SWIDTH 560 0
DWIDTH 7 0
BBX 4 4 1 4
BITMAP
60
90
90
60
ENDCHAR
STARTCHAR 145
ENCODING 177
SWIDTH 560 0
DWIDTH 7 0
BBX 5 5 1 1
BITMAP
20
f8
20
00
f8
ENDCHAR
STARTCHAR 146
ENCODING 178
SWIDTH 560 0
DWIDTH 7 0
BBX 4 5 1 3
BITMAP
60
90
20
40
f0
ENDCHAR
STARTCHAR 147
ENCODING 179
SWIDTH 560 0
DWIDTH 7 0
BBX 4 5 1 3
BITMAP
60
90
20
90
60
ENDCHAR
STARTCHAR 148
ENCODING 180
SWIDTH 560 0
DWIDTH 7 0
BBX 2 2 3 7
BITMAP
40
80
ENDCHAR
STARTCHAR 149
ENCODING 181
SWIDTH 560 0
DWIDTH 7 0
BBX 7 9 0 -3
BITMAP
cc
44
44
44
44
7a
40
40
40
ENDCHAR
STARTCHAR 150
ENCODING 182
SWIDTH 560 0
DWIDTH 7 0
BBX 6 10 0 -1
BITMAP
7c
a8
a8
a8
68
28
28
28
28
6c
ENDCHAR
STARTCHAR 151
ENCODING 183
SWIDTH 560 0
DWIDTH 7 0
BBX 1 1 3 3
BITMAP
80
ENDCHAR
STARTCHAR 152
ENCODING 184
SWIDTH 560 0
DWIDTH 7 0
BBX 3 3 2 -3
BITMAP
40
20
c0
ENDCHAR
STARTCHAR 153
ENCODING 185
SWIDTH 560 0
DWIDTH 7 0
BBX 3 5 2 3
BITMAP
40
c0
40
40
e0
ENDCHAR
STARTCHAR 154
ENCODING 186
SWIDTH 560 0
DWIDTH 7 0
BBX 4 6 1 2
BITMAP
60
90
90
60
00
f0
ENDCHAR
STARTCHAR 155
ENCODING 187
SWIDTH 560 0
DWIDTH 7 0
BBX 6 5 1 1
BITMAP
90
48
24
48
90
ENDCHAR
STARTCHAR 156
ENCODING 188
SWIDTH 560 0
DWIDTH 7 0
BBX 8 10 0 -1
BITMAP
40
c1
42
44
e8
12
26
4a
8f
02
ENDCHAR
STARTCHAR 157
ENCODING 189
SWIDTH 560 0
DWIDTH 7 0
BBX 8 10 0 -1
BITMAP
40
c1
42
44
e8
16
29
42
84
0f
ENDCHAR
STARTCHAR 158
ENCODING 190
SWIDTH 560 0
DWIDTH 7 0
BBX 8 10 0 -1
BITMAP
60
91
22
94
68
12
26
4a
8f
02
ENDCHAR
STARTCHAR 159
ENCODING 191
SWIDTH 560 0
DWIDTH 7 0
BBX 5 8 1 -2
BITMAP
20
00
20
20
40
80
88
70
ENDCHAR
STARTCHAR 160
ENCODING 192
SWIDTH 560 0
DWIDTH 7 0
BBX 7 11 0 0
BITMAP
20
10
00
70
10
28
28
7c
44
44
ee
ENDCHAR
STARTCHAR 161
ENCODING 193
SWIDTH 560 0
DWIDTH 7 0
BBX 7 11 0 0
BITMAP
08
10
00
70
10
28
28
7c
44
44
ee
ENDCHAR
STARTCHAR 162
ENCODING 194
SWIDTH 560 0
DWIDTH 7 0
BBX 7 11 0 0
BITMAP
10
28
00
70
10
28
28
7c
44
44
ee
ENDCHAR
STARTCHAR 163
ENCODING 195
SWIDTH 560 0
DWIDTH 7 0
BBX 7 11 0 0
BITMAP
28
50
00
70
10
28
28
7c
44
44
ee
ENDCHAR
STARTCHAR 164
ENCODING 196
SWIDTH 560 0
DWIDTH 7 0
BBX 7 10 0 0
BITMAP
28
00
70
10
28
28
7c
44
44
ee
ENDCHAR
STARTCHAR 165
ENCODING 197
SWIDTH 560 0
DWIDTH 7 0
BBX 7 11 0 0
BITMAP
10
28
10
70
10
28
28
7c
44
44
ee
ENDCHAR
STARTCHAR 166
ENCODING 198
SWIDTH 560 0
DWIDTH 7 0
BBX 6 8 0 0
BITMAP
7c
30
50
5c
50
f0
90
9c
ENDCHAR
STARTCHAR 167
ENCODING 199
SWIDTH 560 0
DWIDTH 7 0
BBX 5 11 1 -3
BITMAP
70
88
88
80
80
88
88
70
20
10
60
ENDCHAR
STARTCHAR 168
ENCODING 200
SWIDTH 560 0
DWIDTH 7 0
BBX 6 11 0 0
BITMAP
20
10
00
fc
44
48
78
48
44
44
fc
ENDCHAR
STARTCHAR 169
ENCODING 201
SWIDTH 560 0
DWIDTH 7 0
BBX 6 11 0 0
BITMAP
08
10
00
fc
44
48
78
48
44
44
fc
ENDCHAR
STARTCHAR 170
ENCODING 202
SWIDTH 560 0
DWIDTH 7 0
BBX 6 11 0 0
BITMAP
10
28
00
fc
44
48
78
48
44
44
fc
ENDCHAR
STARTCHAR 171
ENCODING 203
SWIDTH 560 0
DWIDTH 7 0
BBX 6 10 0 0
BITMAP
28
00
fc
44
48
78
48
44
44
fc
ENDCHAR
STARTCHAR 172
ENCODING 204
SWIDTH 560 0
DWIDTH 7 0
BBX 5 11 1 0
BITMAP
40
20
00
f8
20
20
20
20
20
20
f8
ENDCHAR
STARTCHAR 173
ENCODING 205
SWIDTH 560 0
DWIDTH 7 0
BBX 5 11 1 0
BITMAP
10
20
00
f8
20
20
20
20
20
20
f8
ENDCHAR
STARTCHAR 174
ENCODING 206
SWIDTH 560 0
DWIDTH 7 0
BBX 5 11 1 0
BITMAP
20
50
00
f8
20
20
20
20
20
20
f8
ENDCHAR
STARTCHAR 175
ENCODING 207
SWIDTH 560 0
DWIDTH 7 0
BBX 5 10 1 0
BITMAP
50
00
f8
20
20
20
20
20
20
f8
ENDCHAR
STARTCHAR 176
ENCODING 208
SWIDTH 560 0
DWIDTH 7 0
BBX 6 8 0 0
BITMAP
f8
44
44
e4
44
44
44
f8
ENDCHAR
STARTCHAR 177
ENCODING 209
SWIDTH 560 0
DWIDTH 7 0
BBX 7 11 0 0
BITMAP
14
28
00
ee
64
54
54
4c
4c
44
e4
ENDCHAR
STARTCHAR 178
ENCODING 210
SWIDTH 560 0
DWIDTH 7 0
BBX 5 11 1 0
BITMAP
40
20
00
70
88
88
88
88
88
88
70
ENDCHAR
STARTCHAR 179
ENCODING 211
SWIDTH 560 0
DWIDTH 7 0
BBX 5 11 1 0
BITMAP
10
20
00
70
88
88
88
88
88
88
70
ENDCHAR
STARTCHAR 180
ENCODING 212
SWIDTH 560 0
DWIDTH 7 0
BBX 5 11 1 0
BITMAP
20
50
00
70
88
88
88
88
88
88
70
ENDCHAR
STARTCHAR 181
ENCODING 213
SWIDTH 560 0
DWIDTH 7 0
BBX 5 11 1 0
BITMAP
28
50
00
70
88
88
88
88
88
88
70
ENDCHAR
STARTCHAR 182
ENCODING 214
SWIDTH 560 0
DWIDTH 7 0
BBX 5 10 1 0
BITMAP
50
00
70
88
88
88
88
88
88
70
ENDCHAR
STARTCHAR 183
ENCODING 215
SWIDTH 560 0
DWIDTH 7 0
BBX 5 5 1 1
BITMAP
88
50
20
50
88
ENDCHAR
STARTCHAR 184
ENCODING 216
SWIDTH 560 0
DWIDTH 7 0
BBX 5 10 1 -1
BITMAP
08
70
98
a8
a8
a8
a8
c8
70
80
ENDCHAR
STARTCHAR 185
ENCODING 217
SWIDTH 560 0
DWIDTH 7 0
BBX 7 11 0 0
BITMAP
20
10
00
ee
44
44
44
44
44
6c
38
ENDCHAR
STARTCHAR 186
ENCODING 218
SWIDTH 560 0
DWIDTH 7 0
BBX 7 11 0 0
BITMAP
08
10
00
ee
44
44
44
44
44
6c
38
ENDCHAR
STARTCHAR 187
ENCODING 219
SWIDTH 560 0
DWIDTH 7 0
BBX 7 11 0 0
BITMAP
10
28
00
ee
44
44
44
44
44
6c
38
ENDCHAR
STARTCHAR 188
ENCODING 220
SWIDTH 560 0
DWIDTH 7 0
BBX 7 10 0 0
BITMAP
28
00
ee
44
44
44
44
44
6c
38
ENDCHAR
STARTCHAR 189
ENCODING 221
SWIDTH 560 0
DWIDTH 7 0
BBX 7 11 0 0
BITMAP
08
10
00
ee
44
28
10
10
10
10
38
ENDCHAR
STARTCHAR 190
ENCODING 222
SWIDTH 560 0
DWIDTH 7 0
BBX 6 8 0 0
BITMAP
e0
40
78
44
44
78
40
e0
ENDCHAR
STARTCHAR 191
ENCODING 223
SWIDTH 560 0
DWIDTH 7 0
BBX 6 9 0 0
BITMAP
30
48
48
48
50
48
44
54
d8
ENDCHAR
STARTCHAR 192
ENCODING 224
SWIDTH 560 0
DWIDTH 7 0
BBX 6 9 1 0
BITMAP
40
20
00
f0
08
78
88
88
74
ENDCHAR
STARTCHAR 193
ENCODING 225
SWIDTH 560 0
DWIDTH 7 0
BBX 6 9 1 0
BITMAP
10
20
00
f0
08
78
88
88
74
ENDCHAR
STARTCHAR 194
ENCODING 226
SWIDTH 560 0
DWIDTH 7 0
BBX 6 9 1 0
BITMAP
20
50
00
f0
08
78
88
88
74
ENDCHAR
STARTCHAR 195
ENCODING 227
SWIDTH 560 0
DWIDTH 7 0
BBX 6 9 1 0
BITMAP
28
50
00
f0
08
78
88
88
74
ENDCHAR
STARTCHAR 196
ENCODING 228
SWIDTH 560 0
DWIDTH 7 0
BBX 6 8 1 0
BITMAP
50
00
f0
08
78
88
88
74
ENDCHAR
STARTCHAR 197
ENCODING 229
SWIDTH 560 0
DWIDTH 7 0
BBX 6 9 1 0
BITMAP
20
50
20
f0
08
78
88
88
74
ENDCHAR
STARTCHAR 198
ENCODING 230
SWIDTH 560 0
DWIDTH 7 0
BBX 7 6 0 0
BITMAP
6c
12
7e
90
92
6c
ENDCHAR
STARTCHAR 199
ENCODING 231
SWIDTH 560 0
DWIDTH 7 0
BBX 5 9 1 -3
BITMAP
70
88
80
80
88
70
20
10
60
ENDCHAR
STARTCHAR 200
ENCODING 232
SWIDTH 560 0
DWIDTH 7 0
BBX 5 9 1 0
BITMAP
40
20
00
70
88
f8
80
88
70
ENDCHAR
STARTCHAR 201
ENCODING 233
SWIDTH 560 0
DWIDTH 7 0
BBX 5 9 1 0
BITMAP
10
20
00
70
88
f8
80
88
70
ENDCHAR
STARTCHAR 202
ENCODING 234
SWIDTH 560 0
DWIDTH 7 0
BBX 5 9 1 0
BITMAP
20
50
00
70
88
f8
80
88
70
ENDCHAR
STARTCHAR 203
ENCODING 235
SWIDTH 560 0
DWIDTH 7 0
BBX 5 8 1 0
BITMAP
50
00
70
88
f8
80
88
70
ENDCHAR
STARTCHAR 204
ENCODING 236
SWIDTH 560 0
DWIDTH 7 0
BBX 5 9 1 0
BITMAP
40
20
00
e0
20
20
20
20
f8
ENDCHAR
STARTCHAR 205
ENCODING 237
SWIDTH 560 0
DWIDTH 7 0
BBX 5 9 1 0
BITMAP
10
20
00
e0
20
20
20
20
f8
ENDCHAR
STARTCHAR 206
ENCODING 238
SWIDTH 560 0
DWIDTH 7 0
BBX 5 9 1 0
BITMAP
20
50
00
e0
20
20
20
20
f8
ENDCHAR
STARTCHAR 207
ENCODING 239
SWIDTH 560 0
DWIDTH 7 0
BBX 5 8 1 0
BITMAP
50
00
e0
20
20
20
20
f8
ENDCHAR
STARTCHAR 208
ENCODING 240
SWIDTH 560 0
DWIDTH 7 0
BBX 5 10 1 0
BITMAP
c0
38
60
90
78
88
88
88
88
70
ENDCHAR
STARTCHAR 209
ENCODING 241
SWIDTH 560 0
DWIDTH 7 0
BBX 7 9 0 0
BITMAP
28
50
00
b8
64
44
44
44
e6
ENDCHAR
STARTCHAR 210
ENCODING 242
SWIDTH 560 0
DWIDTH 7 0
BBX 5 9 1 0
BITMAP
40
20
00
70
88
88
88
88
70
ENDCHAR
STARTCHAR 211
ENCODING 243
SWIDTH 560 0
DWIDTH 7 0
BBX 5 9 1 0
BITMAP
20
40
00
70
88
88
88
88
70
ENDCHAR
STARTCHAR 212
ENCODING 244
SWIDTH 560 0
DWIDTH 7 0
BBX 5 9 1 0
BITMAP
20
50
00
70
88
88
88
88
70
ENDCHAR
STARTCHAR 213
ENCODING 245
SWIDTH 560 0
DWIDTH 7 0
BBX 5 9 1 0
BITMAP
50
a0
00
70
88
88
88
88
70
ENDCHAR
STARTCHAR 214
ENCODING 246
SWIDTH 560 0
DWIDTH 7 0
BBX 5 8 1 0
BITMAP
50
00
70
88
88
88
88
70
ENDCHAR
STARTCHAR 215
ENCODING 247
SWIDTH 560 0
DWIDTH 7 0
BBX 5 5 1 1
BITMAP
20
00
f8
00
20
ENDCHAR
STARTCHAR 216
ENCODING 248
SWIDTH 560 0
DWIDTH 7 0
BBX 5 8 1 -1
BITMAP
08
70
98
a8
a8
c8
70
80
ENDCHAR
STARTCHAR 217
ENCODING 249
SWIDTH 560 0
DWIDTH 7 0
BBX 7 9 0 0
BITMAP
20
10
00
cc
44
44
44
44
3a
ENDCHAR
STARTCHAR 218
ENCODING 250
SWIDTH 560 0
DWIDTH 7 0
BBX 7 9 0 0
BITMAP
10
20
00
cc
44
44
44
44
3a
ENDCHAR
STARTCHAR 219
ENCODING 251
SWIDTH 560 0
DWIDTH 7 0
BBX 7 9 0 0
BITMAP
10
28
00
cc
44
44
44
44
3a
ENDCHAR
STARTCHAR 220
ENCODING 252
SWIDTH 560 0
DWIDTH 7 0
BBX 7 8 0 0
BITMAP
28
00
cc
44
44
44
44
3a
ENDCHAR
STARTCHAR 221
ENCODING 253
SWIDTH 560 0
DWIDTH 7 0
BBX 7 12 0 -3
BITMAP
08
10
00
ee
44
44
28
38
10
10
10
60
ENDCHAR
STARTCHAR 222
ENCODING 254
SWIDTH 560 0
DWIDTH 7 0
BBX 6 12 0 -3
BITMAP
c0
40
40
78
44
44
44
44
78
40
40
e0
ENDCHAR
STARTCHAR 223
ENCODING 255
SWIDTH 560 0
DWIDTH 7 0
BBX 7 11 0 -3
BITMAP
28
00
ee
44
44
28
38
10
10
10
60
ENDCHAR
STARTCHAR he
ENCODING 4608
SWIDTH 96 0
DWIDTH 10 0
BBX 8 11 0 0
BITMAP
0700
c300
c300
c300
c300
c300
c300
c600
c600
7c00
3800
ENDCHAR
STARTCHAR hu
ENCODING 4609
SWIDTH 96 0
DWIDTH 14 0
BBX 12 11 0 0
BITMAP
0700
c300
c300
c300
c3f0
c330
c300
c600
c600
7c00
3800
ENDCHAR
STARTCHAR hi
ENCODING 4610
SWIDTH 96 0
DWIDTH 10 0
BBX 8 12 0 0
BITMAP
6600
c600
c600
c600
c600
7c00
3c00
0c00
1800
3000
3300
3f00
ENDCHAR
STARTCHAR ha
ENCODING 4611
SWIDTH 96 0
DWIDTH 9 0
BBX 7 12 0 0
BITMAP
66
c6
c6
c6
c6
7c
3c
0c
18
30
30
30
ENDCHAR
STARTCHAR hE
ENCODING 4612
SWIDTH 96 0
DWIDTH 9 0
BBX 7 12 0 0
BITMAP
66
c6
c6
c6
c6
7c
3c
0c
1c
34
32
3e
ENDCHAR
STARTCHAR h
ENCODING 4613
SWIDTH 96 0
DWIDTH 11 0
BBX 9 11 0 0
BITMAP
c380
c180
e180
7180
3180
6180
6180
6180
6300
3f00
1e00
ENDCHAR
STARTCHAR ho
ENCODING 4614
SWIDTH 96 0
DWIDTH 13 0
BBX 11 11 0 0
BITMAP
03c0
c320
c360
c380
c300
c300
c300
c600
c600
7c00
3800
ENDCHAR
STARTCHAR le
ENCODING 4616
SWIDTH 96 0
DWIDTH 9 0
BBX 7 12 0 0
BITMAP
3000
3000
3000
7800
7c00
ce00
c600
c600
c600
c600
c600
c600
ENDCHAR
STARTCHAR lu
ENCODING 4617
SWIDTH 96 0
DWIDTH 13 0
BBX 11 12 0 0
BITMAP
3000
3000
3000
7800
7c00
ce00
c600
c600
c7e0
c660
c600
c600
ENDCHAR
STARTCHAR li
ENCODING 4618
SWIDTH 96 0
DWIDTH 13 0
BBX 11 12 0 0
BITMAP
3000
3000
3000
7800
7c00
ce00
c600
c600
c600
c600
c660
c7e0
ENDCHAR
STARTCHAR la
ENCODING 4619
SWIDTH 96 0
DWIDTH 9 0
BBX 7 12 0 0
BITMAP
3000
3000
3000
7800
7c00
ce00
c600
c600
c600
0600
0600
0600
ENDCHAR
STARTCHAR lE
ENCODING 4620
SWIDTH 96 0
DWIDTH 13 0
BBX 11 12 0 0
BITMAP
3000
3000
3000
7800
7c00
ce00
c600
c600
c600
c7c0
c660
c7c0
ENDCHAR
STARTCHAR l
ENCODING 4621
SWIDTH 96 0
DWIDTH 10 0
BBX 8 12 0 0
BITMAP
1800
1800
1800
3c00
3e00
6700
6300
c300
c300
f300
db00
f300
ENDCHAR
STARTCHAR lo
ENCODING 4622
SWIDTH 96 0
DWIDTH 14 0
BBX 12 12 0 0
BITMAP
3000
3000
3000
7800
7c00
ce00
c600
c7e0
c6b0
c6e0
c600
c600
ENDCHAR
STARTCHAR lWa
ENCODING 4623
SWIDTH 96 0
DWIDTH 12 0
BBX 10 14 0 -2
BITMAP
3000
3000
3000
7800
7c00
ce00
c600
c600
c600
0600
0600
0600
1f80
30c0
ENDCHAR
STARTCHAR He
ENCODING 4624
SWIDTH 96 0
DWIDTH 12 0
BBX 10 12 0 0
BITMAP
0c00
0c00
0c00
0c00
0c00
3f00
6d80
6d80
ccc0
ccc0
ccc0
ccc0
ENDCHAR
STARTCHAR Hu
ENCODING 4625
SWIDTH 96 0
DWIDTH 16 0
BBX 14 12 0 0
BITMAP
0c00
0c00
0c00
0c00
0c00
3f00
6d80
6d80
ccfc
cccc
ccc0
ccc0
ENDCHAR
STARTCHAR Hi
ENCODING 4626
SWIDTH 96 0
DWIDTH 16 0
BBX 14 12 0 0
BITMAP
0c00
0c00
0c00
0c00
0c00
3f00
6d80
6d80
ccc0
ccc0
cccc
ccfc
ENDCHAR
STARTCHAR Ha
ENCODING 4627
SWIDTH 96 0
DWIDTH 12 0
BBX 10 12 0 0
BITMAP
0c00
0c00
0c00
0c00
0c00
3f00
6d80
6d80
ccc0
00c0
00c0
00c0
ENDCHAR
STARTCHAR HE
ENCODING 4628
SWIDTH 96 0
DWIDTH 15 0
BBX 13 12 0 0
BITMAP
0c00
0c00
0c00
0c00
0c00
3f00
6d80
6d80
cc80
ccf0
cc98
ccf0
ENDCHAR
STARTCHAR H
ENCODING 4629
SWIDTH 96 0
DWIDTH 12 0
BBX 10 12 0 0
BITMAP
3000
3000
3000
3c00
0c00
3f00
6d80
6d80
ccc0
ccc0
ccc0
ccc0
ENDCHAR
STARTCHAR Ho
ENCODING 4630
SWIDTH 96 0
DWIDTH 12 0
BBX 10 12 0 0
BITMAP
0c00
0c00
0c00
0c00
0c00
3f00
6d80
6d80
ccc0
c000
c000
c000
ENDCHAR
STARTCHAR HWa
ENCODING 4631
SWIDTH 96 0
DWIDTH 16 0
BBX 14 14 0 -2
BITMAP
0c00
0c00
0c00
0c00
0c00
3f00
6d80
6d80
ccc0
00c0
00c0
00c0
07f8
0e1c
ENDCHAR
STARTCHAR me
ENCODING 4632
SWIDTH 96 0
DWIDTH 14 0
BBX 12 8 0 2
BITMAP
3ff0
7ff0
4490
c590
8d10
9930
f1e0
f1c0
ENDCHAR
STARTCHAR mu
ENCODING 4633
SWIDTH 96 0
DWIDTH 17 0
BBX 15 8 0 2
BITMAP
3ff0
7ff0
4490
c59e
8d12
9932
f1e0
f1c0
ENDCHAR
STARTCHAR mi
ENCODING 4634
SWIDTH 96 0
DWIDTH 16 0
BBX 14 12 0 0
BITMAP
3ff0
7ff0
c510
8510
8a10
fbf0
71f0
0020
0020
0040
004c
007c
ENDCHAR
STARTCHAR ma
ENCODING 4635
SWIDTH 96 0
DWIDTH 14 0
BBX 12 12 0 0
BITMAP
3ff0
7ff0
c510
8510
8a10
fbf0
71f0
0020
0020
0040
0040
0040
ENDCHAR
STARTCHAR mE
ENCODING 4636
SWIDTH 96 0
DWIDTH 16 0
BBX 14 12 0 0
BITMAP
3ff0
7ff0
c510
8510
8a10
fbf0
71f0
0020
0020
0078
004c
0078
ENDCHAR
STARTCHAR m
ENCODING 4637
SWIDTH 96 0
DWIDTH 13 0
BBX 11 12 0 0
BITMAP
7fc0
7fe0
ca20
8a20
8a20
8be0
f9c0
7800
0800
1800
3000
6000
ENDCHAR
STARTCHAR mo
ENCODING 4638
SWIDTH 96 0
DWIDTH 13 0
BBX 11 12 0 0
BITMAP
7fc0
7fe0
ca20
8a20
8a20
8be0
f9c0
7800
0800
0800
0800
0c00
ENDCHAR
STARTCHAR mWa
ENCODING 4639
SWIDTH 96 0
DWIDTH 15 0
BBX 13 14 0 -2
BITMAP
3ff0
7ff0
c510
8510
8a10
fbf0
71f0
0020
0020
0060
0040
0040
03f0
0618
ENDCHAR
STARTCHAR `se/s2e
ENCODING 4640
SWIDTH 96 0
DWIDTH 12 0
BBX 10 9 0 1
BITMAP
4cc0
ccc0
ccc0
ccc0
ccc0
cd80
cf80
6c00
3c00
ENDCHAR
STARTCHAR `su/s2u
ENCODING 4641
SWIDTH 96 0
DWIDTH 15 0
BBX 13 9 0 1
BITMAP
4d80
cd80
cdf8
cd98
cd80
cd80
cf80
6c00
3c00
ENDCHAR
STARTCHAR `si/s2i
ENCODING 4642
SWIDTH 96 0
DWIDTH 16 0
BBX 14 12 0 0
BITMAP
cc80
ccc0
ccc0
ccc0
ccc0
edc0
7fc0
00c0
00c0
00c0
00cc
00fc
ENDCHAR
STARTCHAR `sa/s2a
ENCODING 4643
SWIDTH 96 0
DWIDTH 12 0
BBX 10 12 0 0
BITMAP
cc80
ccc0
ccc0
ccc0
ccc0
edc0
7fc0
00c0
00c0
00c0
00c0
00c0
ENDCHAR
STARTCHAR `sE/s2E
ENCODING 4644
SWIDTH 96 0
DWIDTH 14 0
BBX 12 12 0 0
BITMAP
cc80
ccc0
ccc0
ccc0
ccc0
edc0
7fc0
00c0
00c0
00e0
0190
01e0
ENDCHAR
STARTCHAR `s/s2
ENCODING 4645
SWIDTH 96 0
DWIDTH 12 0
BBX 10 12 0 0
BITMAP
cc80
ccc0
ccc0
ccc0
ccc0
edc0
ff80
e000
c000
c000
c000
c000
ENDCHAR
STARTCHAR `so/s2o
ENCODING 4646
SWIDTH 96 0
DWIDTH 12 0
BBX 10 12 0 0
BITMAP
ccc0
ccc0
ccc0
ccc0
ccc0
edc0
7f80
1c00
1800
3800
7000
6000
ENDCHAR
STARTCHAR `sWa/s2Wa
ENCODING 4647
SWIDTH 96 0
DWIDTH 16 0
BBX 14 14 0 -2
BITMAP
cc80
ccc0
ccc0
ccc0
ccc0
edc0
7fc0
00c0
00c0
00c0
00c0
00c0
07f8
0e1c
ENDCHAR
STARTCHAR re
ENCODING 4648
SWIDTH 96 0
DWIDTH 10 0
BBX 8 12 0 0
BITMAP
0c00
0c00
0c00
1800
3800
7000
e000
c000
c000
e300
7f00
3f00
ENDCHAR
STARTCHAR ru
ENCODING 4649
SWIDTH 96 0
DWIDTH 12 0
BBX 10 12 0 0
BITMAP
0c00
0c00
1c00
3800
7000
6000
c000
e000
7fc0
3fc0
0600
0600
ENDCHAR
STARTCHAR ri
ENCODING 4650
SWIDTH 96 0
DWIDTH 11 0
BBX 9 12 0 0
BITMAP
0c00
0c00
0c00
1800
3800
7000
e000
c300
c380
e180
7f00
3e00
ENDCHAR
STARTCHAR ra
ENCODING 4651
SWIDTH 96 0
DWIDTH 13 0
BBX 11 12 0 0
BITMAP
0c00
0c00
0c00
1800
3800
7000
e000
c1e0
c3e0
e660
7e00
3c00
ENDCHAR
STARTCHAR rE
ENCODING 4652
SWIDTH 96 0
DWIDTH 12 0
BBX 10 12 0 0
BITMAP
0c00
0c00
0c00
1800
3800
7000
e000
c000
c000
e780
7cc0
3f80
ENDCHAR
STARTCHAR r
ENCODING 4653
SWIDTH 96 0
DWIDTH 10 0
BBX 8 11 0 0
BITMAP
3f00
7f00
c300
c000
c000
c000
c000
c000
c300
ff00
7e00
ENDCHAR
STARTCHAR ro
ENCODING 4654
SWIDTH 96 0
DWIDTH 12 0
BBX 10 11 0 0
BITMAP
3f80
7cc0
c780
c000
c000
c000
c000
c000
c300
ff00
7e00
ENDCHAR
STARTCHAR rWa
ENCODING 4655
SWIDTH 96 0
DWIDTH 13 0
BBX 11 13 0 -2
BITMAP
c0c0
7380
0c00
0c00
1800
3800
7000
e000
c1e0
c3e0
e660
7e00
3c00
ENDCHAR
STARTCHAR se
ENCODING 4656
SWIDTH 96 0
DWIDTH 9 0
BBX 7 12 0 0
BITMAP
1000
1000
3800
7c00
c600
c600
c600
c600
c600
c600
c600
c600
ENDCHAR
STARTCHAR su
ENCODING 4657
SWIDTH 96 0
DWIDTH 13 0
BBX 11 12 0 0
BITMAP
1000
1000
3800
7c00
c600
c600
c600
c7e0
c660
c600
c600
c600
ENDCHAR
STARTCHAR si
ENCODING 4658
SWIDTH 96 0
DWIDTH 13 0
BBX 11 12 0 0
BITMAP
1000
1000
3800
7c00
c600
c600
c600
c600
c600
c600
c660
c7e0
ENDCHAR
STARTCHAR sa
ENCODING 4659
SWIDTH 96 0
DWIDTH 9 0
BBX 7 12 0 0
BITMAP
1000
1000
3800
7c00
c600
c600
c600
c600
c600
0600
0600
0600
ENDCHAR
STARTCHAR sE
ENCODING 4660
SWIDTH 96 0
DWIDTH 12 0
BBX 10 12 0 0
BITMAP
1000
1000
3800
7c00
c600
c600
c600
c600
c700
c680
c640
c7c0
ENDCHAR
STARTCHAR s
ENCODING 4661
SWIDTH 96 0
DWIDTH 10 0
BBX 8 11 0 0
BITMAP
3000
1800
1c00
3e00
6300
6300
6300
6300
6300
6300
6300
ENDCHAR
STARTCHAR so
ENCODING 4662
SWIDTH 96 0
DWIDTH 9 0
BBX 7 12 0 0
BITMAP
1000
1000
3800
7c00
c600
c600
c600
c600
c600
c000
c000
c000
ENDCHAR
STARTCHAR sWa
ENCODING 4663
SWIDTH 96 0
DWIDTH 12 0
BBX 10 14 0 -2
BITMAP
1000
1000
3800
7c00
c600
c600
c600
c600
c600
0600
0600
0600
1f80
30c0
ENDCHAR
STARTCHAR xe
ENCODING 4664
SWIDTH 96 0
DWIDTH 11 0
BBX 9 12 0 0
BITMAP
c180
7f00
0800
1c00
3e00
6300
6300
6300
6300
6300
6300
6300
ENDCHAR
STARTCHAR xu
ENCODING 4665
SWIDTH 96 0
DWIDTH 14 0
BBX 12 12 0 0
BITMAP
c180
7f00
0800
1c00
3e00
6300
6300
63f0
6330
6330
6300
6300
ENDCHAR
STARTCHAR xi
ENCODING 4666
SWIDTH 96 0
DWIDTH 14 0
BBX 12 12 0 0
BITMAP
c180
7f00
0800
1c00
3e00
6300
6300
6300
6300
6300
6330
63f0
ENDCHAR
STARTCHAR xa
ENCODING 4667
SWIDTH 96 0
DWIDTH 11 0
BBX 9 12 0 0
BITMAP
c180
7f00
0800
1c00
3e00
6300
6300
6300
6300
0300
0300
0300
ENDCHAR
STARTCHAR xE
ENCODING 4668
SWIDTH 96 0
DWIDTH 14 0
BBX 12 12 0 0
BITMAP
c180
7f00
0800
1c00
3e00
6300
6300
6300
6300
63e0
6330
63e0
ENDCHAR
STARTCHAR x
ENCODING 4669
SWIDTH 96 0
DWIDTH 11 0
BBX 9 12 0 0
BITMAP
c300
7e00
0c00
0e00
1f00
1980
3180
3180
3180
3180
3180
3180
ENDCHAR
STARTCHAR xo
ENCODING 4670
SWIDTH 96 0
DWIDTH 11 0
BBX 9 12 0 0
BITMAP
c180
7f00
0800
1c00
3e00
6300
6300
6300
6300
6000
6000
6000
ENDCHAR
STARTCHAR xWa
ENCODING 4671
SWIDTH 96 0
DWIDTH 13 0
BBX 11 14 0 -2
BITMAP
c180
7f00
0800
1c00
3e00
6300
6300
6300
6300
6300
0300
0300
0fc0
1860
ENDCHAR
STARTCHAR qe
ENCODING 4672
SWIDTH 96 0
DWIDTH 12 0
BBX 10 12 0 0
BITMAP
0c00
0c00
0c00
1f80
6cc0
ccc0
cd80
7e00
0c00
0c00
0c00
0c00
ENDCHAR
STARTCHAR qu
ENCODING 4673
SWIDTH 96 0
DWIDTH 12 0
BBX 10 12 0 0
BITMAP
0c00
0c00
0c00
1f80
6cc0
ccc0
cd80
7e00
0c00
0fc0
0cc0
0c00
ENDCHAR
STARTCHAR qi
ENCODING 4674
SWIDTH 96 0
DWIDTH 12 0
BBX 10 12 0 0
BITMAP
0c00
0c00
0c00
1f80
6cc0
ccc0
cd80
7e00
0c00
0c00
0cc0
0fc0
ENDCHAR
STARTCHAR qa
ENCODING 4675
SWIDTH 96 0
DWIDTH 12 0
BBX 10 12 0 0
BITMAP
0c00
0c00
0c00
1f80
6cc0
ccc0
cd80
7e00
0c00
1800
3000
6000
ENDCHAR
STARTCHAR qE
ENCODING 4676
SWIDTH 96 0
DWIDTH 12 0
BBX 10 12 0 0
BITMAP
0c00
0c00
0c00
1f80
6cc0
ccc0
cd80
7e00
0c00
0f80
0cc0
0f80
ENDCHAR
STARTCHAR q
ENCODING 4677
SWIDTH 96 0
DWIDTH 12 0
BBX 10 12 0 0
BITMAP
3000
3000
3c00
0c00
1f80
6cc0
ccc0
cd80
7e00
0c00
0c00
0c00
ENDCHAR
STARTCHAR qo
ENCODING 4678
SWIDTH 96 0
DWIDTH 12 0
BBX 10 12 0 0
BITMAP
0700
0980
0b00
0c00
1f80
6cc0
ccc0
cd80
7e00
0c00
0c00
0c00
ENDCHAR
STARTCHAR qWe
ENCODING 4680
SWIDTH 96 0
DWIDTH 13 0
BBX 11 12 0 0
BITMAP
0c00
0c00
0c00
1f80
6cc0
ccc0
cd80
7e00
0fc0
0d60
0dc0
0c00
ENDCHAR
STARTCHAR qWi
ENCODING 4682
SWIDTH 96 0
DWIDTH 16 0
BBX 14 12 0 0
BITMAP
0c00
0c00
0c00
1f80
6cd8
ccd8
cdf8
7e0c
0c0c
0c00
0c00
0c00
ENDCHAR
STARTCHAR qWa
ENCODING 4683
SWIDTH 96 0
DWIDTH 12 0
BBX 10 14 0 -2
BITMAP
0c00
0c00
0c00
1f80
6cc0
ccc0
cd80
7e00
0c00
0c00
0c00
0c00
3f00
6180
ENDCHAR
STARTCHAR qWE
ENCODING 4684
SWIDTH 96 0
DWIDTH 12 0
BBX 10 14 0 -2
BITMAP
0c00
0c00
0c00
1f80
6cc0
ccc0
cd80
7e00
0c00
0c00
0f80
0cc0
3f80
6000
ENDCHAR
STARTCHAR qWu/qW
ENCODING 4685
SWIDTH 96 0
DWIDTH 16 0
BBX 14 12 0 0
BITMAP
0c00
0c30
0c30
1ffc
6ccc
ccc0
cd80
7e00
0c00
0c00
0c00
0c00
ENDCHAR
STARTCHAR Qe
ENCODING 4688
SWIDTH 96 0
DWIDTH 12 0
BBX 10 12 0 0
BITMAP
6180
3f00
0c00
0c00
1f80
6cc0
ccc0
cd80
7e00
0c00
0c00
0c00
ENDCHAR
STARTCHAR Qu
ENCODING 4689
SWIDTH 96 0
DWIDTH 12 0
BBX 10 12 0 0
BITMAP
6180
3f00
0c00
0c00
1f80
6cc0
ccc0
cd80
7e00
0c00
0fc0
0cc0
ENDCHAR
STARTCHAR Qi
ENCODING 4690
SWIDTH 96 0
DWIDTH 12 0
BBX 10 12 0 0
BITMAP
6180
3f00
0c00
0c00
1f80
6cc0
ccc0
cd80
7e00
0c00
0cc0
0fc0
ENDCHAR
STARTCHAR Qa
ENCODING 4691
SWIDTH 96 0
DWIDTH 12 0
BBX 10 12 0 0
BITMAP
6180
3f00
0c00
0c00
1f80
6cc0
ccc0
cd80
7e00
0c00
1800
3000
ENDCHAR
STARTCHAR QE
ENCODING 4692
SWIDTH 96 0
DWIDTH 12 0
BBX 10 12 0 0
BITMAP
6180
3f00
0c00
1f80
6cc0
ccc0
cd80
7e00
0c00
0f80
0cc0
0f80
ENDCHAR
STARTCHAR Q
ENCODING 4693
SWIDTH 96 0
DWIDTH 13 0
BBX 11 12 0 0
BITMAP
c300
7e00
1800
1e00
0600
0fc0
3660
6660
66c0
3f00
0600
0600
ENDCHAR
STARTCHAR Qo
ENCODING 4694
SWIDTH 96 0
DWIDTH 12 0
BBX 10 12 0 0
BITMAP
60c0
3f80
0900
0b00
0c00
1f80
6cc0
ccc0
cd80
7e00
0c00
0c00
ENDCHAR
STARTCHAR QWe
ENCODING 4696
SWIDTH 96 0
DWIDTH 13 0
BBX 11 12 0 0
BITMAP
6180
3f00
0c00
1f80
6cc0
ccc0
cd80
7e00
0fc0
0d60
0dc0
0c00
ENDCHAR
STARTCHAR QWi
ENCODING 4698
SWIDTH 96 0
DWIDTH 16 0
BBX 14 12 0 0
BITMAP
6180
3f00
0c00
0c00
1f80
6cd8
ccd8
cdf8
7e0c
0c0c
0c00
0c00
ENDCHAR
STARTCHAR QWa
ENCODING 4699
SWIDTH 96 0
DWIDTH 12 0
BBX 10 14 0 0
BITMAP
6180
3f00
0c00
0c00
1f80
6cc0
ccc0
cd80
7e00
0c00
0c00
0c00
3f00
6180
ENDCHAR
STARTCHAR QWE
ENCODING 4700
SWIDTH 96 0
DWIDTH 12 0
BBX 10 14 0 -2
BITMAP
6180
3f00
0c00
0c00
1f80
6cc0
ccc0
cd80
7e00
0c00
0f80
0cc0
3f80
6000
ENDCHAR
STARTCHAR QWu/QW
ENCODING 4701
SWIDTH 96 0
DWIDTH 16 0
BBX 14 12 0 0
BITMAP
6180
3f00
0c30
0c30
1ffc
6ccc
ccc0
cd80
7e00
0c00
0c00
0c00
ENDCHAR
STARTCHAR be
ENCODING 4704
SWIDTH 96 0
DWIDTH 9 0
BBX 7 11 0 0
BITMAP
3800
7c00
c600
c600
c600
c600
c600
c600
c600
c600
c600
ENDCHAR
STARTCHAR bu
ENCODING 4705
SWIDTH 96 0
DWIDTH 13 0
BBX 11 11 0 0
BITMAP
3800
7c00
c600
c600
c600
c7e0
c660
c660
c600
c600
c600
ENDCHAR
STARTCHAR bi
ENCODING 4706
SWIDTH 96 0
DWIDTH 13 0
BBX 11 11 0 0
BITMAP
3800
7c00
c600
c600
c600
c600
c600
c600
c600
c660
c7e0
ENDCHAR
STARTCHAR ba
ENCODING 4707
SWIDTH 96 0
DWIDTH 9 0
BBX 7 11 0 0
BITMAP
3800
7c00
c600
c600
c600
c600
c600
0600
0600
0600
0600
ENDCHAR
STARTCHAR bE
ENCODING 4708
SWIDTH 96 0
DWIDTH 13 0
BBX 11 11 0 0
BITMAP
3800
7c00
c600
c600
c600
c600
c600
c600
c7c0
c660
c7c0
ENDCHAR
STARTCHAR b
ENCODING 4709
SWIDTH 96 0
DWIDTH 13 0
BBX 11 11 0 0
BITMAP
0380
07c0
0c60
0c60
0c60
fc60
cc60
cc60
0c60
0c60
0c60
ENDCHAR
STARTCHAR bo
ENCODING 4710
SWIDTH 96 0
DWIDTH 9 0
BBX 7 11 0 0
BITMAP
3800
7c00
c600
c600
c600
c600
c600
c000
c000
c000
c000
ENDCHAR
STARTCHAR bWa
ENCODING 4711
SWIDTH 96 0
DWIDTH 12 0
BBX 10 13 0 -2
BITMAP
3800
7c00
c600
c600
c600
c600
c600
0600
0600
0600
0600
1f80
30c0
ENDCHAR
STARTCHAR ve
ENCODING 4712
SWIDTH 96 0
DWIDTH 11 0
BBX 9 12 0 0
BITMAP
c180
7f00
0000
1c00
3e00
6300
6300
6300
6300
6300
6300
6300
ENDCHAR
STARTCHAR vu
ENCODING 4713
SWIDTH 96 0
DWIDTH 14 0
BBX 12 12 0 0
BITMAP
c180
7f00
0000
1c00
3e00
6300
6300
63f0
6330
6330
6300
6300
ENDCHAR
STARTCHAR vi
ENCODING 4714
SWIDTH 96 0
DWIDTH 14 0
BBX 12 12 0 0
BITMAP
c180
7f00
0000
1c00
3e00
6300
6300
6300
6300
6300
6330
63f0
ENDCHAR
STARTCHAR va
ENCODING 4715
SWIDTH 96 0
DWIDTH 11 0
BBX 9 12 0 0
BITMAP
c180
7f00
0000
1c00
3e00
6300
6300
6300
6300
6300
0300
0300
ENDCHAR
STARTCHAR vE
ENCODING 4716
SWIDTH 96 0
DWIDTH 14 0
BBX 12 12 0 0
BITMAP
c180
7f00
0000
1c00
3e00
6300
6300
6300
6300
63e0
6330
63e0
ENDCHAR
STARTCHAR v
ENCODING 4717
SWIDTH 96 0
DWIDTH 14 0
BBX 12 12 0 0
BITMAP
1830
0fe0
0000
0380
07c0
0c60
0c60
fc60
cc60
cc60
0c60
0c60
ENDCHAR
STARTCHAR vo
ENCODING 4718
SWIDTH 96 0
DWIDTH 11 0
BBX 9 12 0 0
BITMAP
c180
7f00
0000
1c00
3e00
6300
6300
6300
6300
6300
6000
6000
ENDCHAR
STARTCHAR vWa
ENCODING 4719
SWIDTH 96 0
DWIDTH 13 0
BBX 11 14 0 -2
BITMAP
c180
7f00
0000
1c00
3e00
6300
6300
6300
6300
6300
0300
0300
0fc0
1860
ENDCHAR
STARTCHAR te
ENCODING 4720
SWIDTH 96 0
DWIDTH 14 0
BBX 12 12 0 0
BITMAP
0e00
0600
0600
0600
7fe0
fff0
c630
0600
0600
0600
0600
0600
ENDCHAR
STARTCHAR tu
ENCODING 4721
SWIDTH 96 0
DWIDTH 14 0
BBX 12 12 0 0
BITMAP
0e00
0600
0600
0600
7fe0
fff0
c630
0600
07e0
0660
0600
0600
ENDCHAR
STARTCHAR ti
ENCODING 4722
SWIDTH 96 0
DWIDTH 14 0
BBX 12 12 0 0
BITMAP
0e00
0600
0600
0600
7fe0
fff0
c630
0600
0600
0600
0660
07e0
ENDCHAR
STARTCHAR ta
ENCODING 4723
SWIDTH 96 0
DWIDTH 14 0
BBX 12 12 0 0
BITMAP
0e00
0600
0600
0600
7fe0
fff0
c630
0600
0600
0e00
1c00
3800
ENDCHAR
STARTCHAR tE
ENCODING 4724
SWIDTH 96 0
DWIDTH 14 0
BBX 12 12 0 0
BITMAP
0e00
0600
0600
0600
7fe0
fff0
c630
0600
0600
07c0
0660
07c0
ENDCHAR
STARTCHAR t
ENCODING 4725
SWIDTH 96 0
DWIDTH 14 0
BBX 12 12 0 0
BITMAP
1800
1c00
0e00
0600
0600
7fe0
fff0
c630
0600
0600
0600
0600
ENDCHAR
STARTCHAR to
ENCODING 4726
SWIDTH 96 0
DWIDTH 14 0
BBX 12 12 0 0
BITMAP
0f80
0c80
0580
0600
7fe0
fff0
c630
0600
0600
0600
0600
0600
ENDCHAR
STARTCHAR tWa
ENCODING 4727
SWIDTH 96 0
DWIDTH 14 0
BBX 12 14 0 -2
BITMAP
0e00
0600
0600
0600
7fe0
fff0
c630
0600
0600
0600
0600
0600
1f80
30c0
ENDCHAR
STARTCHAR ce
ENCODING 4728
SWIDTH 96 0
DWIDTH 14 0
BBX 12 12 0 0
BITMAP
6060
7fe0
fff0
c630
0600
7fe0
fff0
c630
0600
0600
0600
0600
ENDCHAR
STARTCHAR cu
ENCODING 4729
SWIDTH 96 0
DWIDTH 14 0
BBX 12 12 0 0
BITMAP
6060
7fe0
fff0
c630
0600
7fe0
fff0
c630
0600
07e0
0660
0600
ENDCHAR
STARTCHAR ci
ENCODING 4730
SWIDTH 96 0
DWIDTH 14 0
BBX 12 12 0 0
BITMAP
6060
7fe0
fff0
c630
0600
7fe0
fff0
c630
0600
0600
0660
07e0
ENDCHAR
STARTCHAR ca
ENCODING 4731
SWIDTH 96 0
DWIDTH 14 0
BBX 12 12 0 0
BITMAP
6060
7fe0
fff0
c630
0600
7fe0
fff0
c630
0600
0e00
1c00
3800
ENDCHAR
STARTCHAR cE
ENCODING 4732
SWIDTH 96 0
DWIDTH 14 0
BBX 12 12 0 0
BITMAP
6060
7fe0
fff0
c630
0600
7fe0
fff0
c630
0600
07c0
0660
07c0
ENDCHAR
STARTCHAR c
ENCODING 4733
SWIDTH 96 0
DWIDTH 15 0
BBX 13 12 0 0
BITMAP
6180
7f80
ffc0
ccc0
0e00
0300
3ff0
7ff8
6318
0300
0300
0300
ENDCHAR
STARTCHAR co
ENCODING 4734
SWIDTH 96 0
DWIDTH 14 0
BBX 12 12 0 0
BITMAP
30c0
7fe0
6960
0900
0600
7fe0
fff0
c630
0600
0600
0600
0600
ENDCHAR
STARTCHAR cWa
ENCODING 4735
SWIDTH 96 0
DWIDTH 14 0
BBX 12 14 0 -2
BITMAP
6060
7fe0
fff0
c630
0600
7fe0
fff0
c630
0600
0600
0600
0600
1f80
30c0
ENDCHAR
STARTCHAR `he/h2e
ENCODING 4736
SWIDTH 96 0
DWIDTH 10 0
BBX 8 12 0 0
BITMAP
0c00
0c00
0c00
fc00
cf00
0300
0300
0300
0300
0300
0300
0300
ENDCHAR
STARTCHAR `hu/h2u
ENCODING 4737
SWIDTH 96 0
DWIDTH 14 0
BBX 12 12 0 0
BITMAP
0c00
0c00
0c00
fc00
cf00
0300
0300
03f0
0330
0300
0300
0300
ENDCHAR
STARTCHAR `hi/h2i
ENCODING 4738
SWIDTH 96 0
DWIDTH 14 0
BBX 12 12 0 0
BITMAP
0c00
0c00
0c00
fc00
cf00
0300
0300
0300
0300
0300
0330
03f0
ENDCHAR
STARTCHAR `ha/h2a
ENCODING 4739
SWIDTH 96 0
DWIDTH 10 0
BBX 8 12 0 0
BITMAP
0c00
0c00
0c00
fc00
cf00
0300
0300
0300
0e00
1800
3000
3000
ENDCHAR
STARTCHAR `hE/h2E
ENCODING 4740
SWIDTH 96 0
DWIDTH 14 0
BBX 12 12 0 0
BITMAP
0c00
0c00
0c00
fc00
cf00
0300
0300
0300
0300
03e0
0330
03e0
ENDCHAR
STARTCHAR `h/h2
ENCODING 4741
SWIDTH 96 0
DWIDTH 10 0
BBX 8 12 0 0
BITMAP
0c00
0c00
0c00
3c00
6f00
c300
c300
0300
0300
0300
0300
0300
ENDCHAR
STARTCHAR `ho/h2o
ENCODING 4742
SWIDTH 96 0
DWIDTH 14 0
BBX 12 12 0 0
BITMAP
07e0
0f90
18e0
f800
d800
1800
1f80
0f80
0180
0180
0180
0180
ENDCHAR
STARTCHAR hWe
ENCODING 4744
SWIDTH 96 0
DWIDTH 15 0
BBX 13 12 0 0
BITMAP
0c00
0c00
0c00
fc00
cf00
0300
03f0
0358
0370
0300
0300
0300
ENDCHAR
STARTCHAR hWi
ENCODING 4746
SWIDTH 96 0
DWIDTH 15 0
BBX 13 12 0 0
BITMAP
0c00
0c00
0c00
fc00
cf00
0330
0330
03f0
0318
0318
0300
0300
ENDCHAR
STARTCHAR hWa
ENCODING 4747
SWIDTH 96 0
DWIDTH 13 0
BBX 11 14 0 -2
BITMAP
0c00
0c00
0c00
fc00
cf00
0300
0300
0300
0300
0300
0300
0300
0fc0
1860
ENDCHAR
STARTCHAR hWE
ENCODING 4748
SWIDTH 96 0
DWIDTH 14 0
BBX 12 14 0 -2
BITMAP
0c00
0c00
0c00
fc00
cf00
0300
0300
0300
0300
0300
03e0
0330
0fe0
1800
ENDCHAR
STARTCHAR hWu/hW
ENCODING 4749
SWIDTH 96 0
DWIDTH 15 0
BBX 13 12 0 0
BITMAP
0c00
0c00
0c00
fc60
cf60
03f8
0318
0300
0300
0300
0300
0300
ENDCHAR
STARTCHAR ne
ENCODING 4752
SWIDTH 96 0
DWIDTH 7 0
BBX 5 12 0 0
BITMAP
c000
c000
c000
f000
3800
3000
3000
3000
6000
6000
6000
6000
ENDCHAR
STARTCHAR nu
ENCODING 4753
SWIDTH 96 0
DWIDTH 9 0
BBX 7 12 0 0
BITMAP
c000
c000
c000
f000
3800
3000
3000
3e00
6600
6000
6000
6000
ENDCHAR
STARTCHAR ni
ENCODING 4754
SWIDTH 96 0
DWIDTH 9 0
BBX 7 12 0 0
BITMAP
c000
c000
c000
f000
3800
3000
3000
3000
6000
6000
6600
7e00
ENDCHAR
STARTCHAR na
ENCODING 4755
SWIDTH 96 0
DWIDTH 11 0
BBX 9 12 0 0
BITMAP
1f00
3f80
6180
c000
e000
7c00
0e00
0600
0400
0c00
0c00
0c00
ENDCHAR
STARTCHAR nE
ENCODING 4756
SWIDTH 96 0
DWIDTH 8 0
BBX 6 12 0 0
BITMAP
c000
c000
c000
f000
3800
3000
3000
3000
7800
6400
6c00
7800
ENDCHAR
STARTCHAR n
ENCODING 4757
SWIDTH 96 0
DWIDTH 10 0
BBX 8 12 0 0
BITMAP
ff00
fe00
c600
0c00
1f00
0300
0600
0c00
0c00
1800
1800
3000
ENDCHAR
STARTCHAR no
ENCODING 4758
SWIDTH 96 0
DWIDTH 13 0
BBX 11 12 0 0
BITMAP
1fc0
3f20
6160
c0c0
e000
7c00
0e00
0600
0400
0c00
0c00
0c00
ENDCHAR
STARTCHAR nWa
ENCODING 4759
SWIDTH 96 0
DWIDTH 11 0
BBX 9 13 0 -2
BITMAP
1f00
3f80
6180
c000
e000
7c00
0e00
0600
0400
0c00
0c00
3f00
6180
ENDCHAR
STARTCHAR Ne
ENCODING 4760
SWIDTH 96 0
DWIDTH 12 0
BBX 10 12 0 0
BITMAP
6180
ffc0
8c40
0c00
0f00
0380
0300
0300
0600
0600
0600
0600
ENDCHAR
STARTCHAR Nu
ENCODING 4761
SWIDTH 96 0
DWIDTH 13 0
BBX 11 12 0 0
BITMAP
6180
ffc0
8c40
0c00
0f00
0380
0300
03e0
0660
0600
0600
0600
ENDCHAR
STARTCHAR Ni
ENCODING 4762
SWIDTH 96 0
DWIDTH 13 0
BBX 11 12 0 0
BITMAP
6180
ffc0
8c40
0c00
0f00
0380
0300
0300
0600
0600
0660
07e0
ENDCHAR
STARTCHAR Na
ENCODING 4763
SWIDTH 96 0
DWIDTH 13 0
BBX 11 13 0 0
BITMAP
30c0
7fe0
4620
1f00
3f80
6180
c000
e000
7c00
0e00
0600
0c00
0c00
ENDCHAR
STARTCHAR NE
ENCODING 4764
SWIDTH 96 0
DWIDTH 12 0
BBX 10 12 0 0
BITMAP
6180
ffc0
8c40
0c00
0f00
0380
0300
0300
0780
0640
06c0
0780
ENDCHAR
STARTCHAR N
ENCODING 4765
SWIDTH 96 0
DWIDTH 12 0
BBX 10 13 0 0
BITMAP
6180
ffc0
8c40
3f80
7f00
6300
0600
0f80
0180
0300
0600
0600
0600
ENDCHAR
STARTCHAR No
ENCODING 4766
SWIDTH 96 0
DWIDTH 13 0
BBX 11 13 0 0
BITMAP
3180
7fc0
4440
1fc0
3f20
6160
c0c0
e000
7c00
0e00
0600
0c00
0c00
ENDCHAR
STARTCHAR NWa
ENCODING 4767
SWIDTH 96 0
DWIDTH 13 0
BBX 11 15 0 -2
BITMAP
30c0
7fe0
4620
1f00
3f80
6180
c000
e000
7c00
0e00
0600
0c00
0c00
3f00
6180
ENDCHAR
STARTCHAR e/a
ENCODING 4768
SWIDTH 96 0
DWIDTH 9 0
BBX 7 12 0 0
BITMAP
6000
6000
6000
7800
1800
3800
3c00
6e00
e600
c600
c600
c600
ENDCHAR
STARTCHAR u/U
ENCODING 4769
SWIDTH 96 0
DWIDTH 13 0
BBX 11 12 0 0
BITMAP
6000
6000
6000
7800
1800
3800
3c00
6e00
e7e0
c660
c600
c600
ENDCHAR
STARTCHAR i
ENCODING 4770
SWIDTH 96 0
DWIDTH 13 0
BBX 11 12 0 0
BITMAP
6000
6000
6000
7800
1800
3800
3c00
6e00
e600
c600
c660
c7e0
ENDCHAR
STARTCHAR a/A
ENCODING 4771
SWIDTH 96 0
DWIDTH 9 0
BBX 7 12 0 0
BITMAP
6000
6000
6000
7800
1800
3c00
6e00
c600
c600
c600
0600
0600
ENDCHAR
STARTCHAR E
ENCODING 4772
SWIDTH 96 0
DWIDTH 13 0
BBX 11 12 0 0
BITMAP
6000
6000
6000
7800
1800
3800
3c00
6e00
e600
c7c0
c660
c7c0
ENDCHAR
STARTCHAR I
ENCODING 4773
SWIDTH 96 0
DWIDTH 9 0
BBX 7 12 0 0
BITMAP
c000
c000
e000
6000
3000
3800
7c00
ee00
c600
c600
c600
c600
ENDCHAR
STARTCHAR o/O
ENCODING 4774
SWIDTH 96 0
DWIDTH 9 0
BBX 7 12 0 0
BITMAP
6000
6000
6000
7800
1800
3c00
6e00
c600
c600
c600
c000
c000
ENDCHAR
STARTCHAR e3
ENCODING 4775
SWIDTH 96 0
DWIDTH 11 0
BBX 9 13 0 0
BITMAP
6300
7f00
d980
1800
1e00
0600
0e00
0f00
1b80
3980
3180
3180
3180
ENDCHAR
STARTCHAR ke
ENCODING 4776
SWIDTH 96 0
DWIDTH 11 0
BBX 9 11 0 0
BITMAP
c000
ce00
ff00
f180
3180
3180
3180
3180
3180
3180
3180
ENDCHAR
STARTCHAR ku
ENCODING 4777
SWIDTH 96 0
DWIDTH 15 0
BBX 13 11 0 0
BITMAP
c000
ce00
ff00
f180
3180
3180
31f8
3198
3180
3180
3180
ENDCHAR
STARTCHAR ki
ENCODING 4778
SWIDTH 96 0
DWIDTH 15 0
BBX 13 11 0 0
BITMAP
c000
ce00
ff00
f180
3180
3180
3180
3180
3180
3198
31f8
ENDCHAR
STARTCHAR ka
ENCODING 4779
SWIDTH 96 0
DWIDTH 11 0
BBX 9 11 0 0
BITMAP
c000
ce00
ff00
f180
3180
3180
3180
3180
0180
0180
0180
ENDCHAR
STARTCHAR kE
ENCODING 4780
SWIDTH 96 0
DWIDTH 15 0
BBX 13 11 0 0
BITMAP
c000
ce00
ff00
f180
3180
3180
3180
3180
31f0
3198
31f0
ENDCHAR
STARTCHAR k
ENCODING 4781
SWIDTH 96 0
DWIDTH 11 0
BBX 9 11 0 0
BITMAP
c000
ce00
df00
f180
6180
7180
3180
3180
3180
3180
3180
ENDCHAR
STARTCHAR ko
ENCODING 4782
SWIDTH 96 0
DWIDTH 11 0
BBX 9 11 0 0
BITMAP
c000
ce00
ff00
f180
3180
3180
3180
3180
3000
3000
3000
ENDCHAR
STARTCHAR kWe
ENCODING 4784
SWIDTH 96 0
DWIDTH 15 0
BBX 13 11 0 0
BITMAP
c000
cc00
fe00
f300
3300
33f0
3358
3370
3300
3300
3300
ENDCHAR
STARTCHAR kWi
ENCODING 4786
SWIDTH 96 0
DWIDTH 15 0
BBX 13 11 0 0
BITMAP
c000
cc00
fe00
f300
3330
3330
33f0
3318
3318
3300
3300
ENDCHAR
STARTCHAR kWa
ENCODING 4787
SWIDTH 96 0
DWIDTH 14 0
BBX 12 13 0 -2
BITMAP
c000
ce00
ff00
f180
3180
3180
3180
3180
0180
0180
0180
07e0
0c30
ENDCHAR
STARTCHAR kWE
ENCODING 4788
SWIDTH 96 0
DWIDTH 18 0
BBX 16 13 0 -2
BITMAP
c000
ce00
ff00
f180
3180
3180
3180
3180
0180
01f0
0198
07f0
0c00
ENDCHAR
STARTCHAR kWu/kW
ENCODING 4789
SWIDTH 96 0
DWIDTH 15 0
BBX 13 11 0 0
BITMAP
c000
cc60
fe60
f3f8
3318
3300
3300
3300
3300
3300
3300
ENDCHAR
STARTCHAR Ke
ENCODING 4792
SWIDTH 96 0
DWIDTH 13 0
BBX 11 12 0 0
BITMAP
c300
7e00
1800
1b80
1fc0
0c60
0c60
0c60
0c60
0c60
0c60
0c60
ENDCHAR
STARTCHAR Ku
ENCODING 4793
SWIDTH 96 0
DWIDTH 17 0
BBX 15 12 0 0
BITMAP
c300
7e00
1800
1b80
1fc0
0c60
0c60
0c7e
0c66
0c60
0c60
0c60
ENDCHAR
STARTCHAR Ki
ENCODING 4794
SWIDTH 96 0
DWIDTH 17 0
BBX 15 12 0 0
BITMAP
c300
7e00
1800
1b80
1fc0
0c60
0c60
0c60
0c60
0c60
0c66
0c7e
ENDCHAR
STARTCHAR Ka
ENCODING 4795
SWIDTH 96 0
DWIDTH 13 0
BBX 11 12 0 0
BITMAP
c300
7e00
1800
1b80
1fc0
0c60
0c60
0c60
0c60
0060
0060
0060
ENDCHAR
STARTCHAR KE
ENCODING 4796
SWIDTH 96 0
DWIDTH 17 0
BBX 15 12 0 0
BITMAP
c300
7e00
1800
1b80
1fc0
0c60
0c60
0c60
0c60
0c7c
0c66
0c7c
ENDCHAR
STARTCHAR K
ENCODING 4797
SWIDTH 96 0
DWIDTH 14 0
BBX 12 12 0 0
BITMAP
c300
7e00
1800
1dc0
1fe0
0630
0730
0330
0330
0330
0330
0330
ENDCHAR
STARTCHAR Ko
ENCODING 4798
SWIDTH 96 0
DWIDTH 13 0
BBX 11 12 0 0
BITMAP
c300
7e00
1800
1b80
1fc0
0c60
0c60
0c60
0c60
0c00
0c00
0c00
ENDCHAR
STARTCHAR KWe
ENCODING 4800
SWIDTH 96 0
DWIDTH 18 0
BBX 16 12 0 0
BITMAP
c300
7e00
1800
1b80
1fc0
0c60
0c7e
0c6b
0c6e
0c60
0c60
0c60
ENDCHAR
STARTCHAR KWi
ENCODING 4802
SWIDTH 96 0
DWIDTH 18 0
BBX 16 12 0 0
BITMAP
c300
7e00
1800
1b80
1fc0
0c66
0c66
0c7e
0c63
0c63
0c60
0c60
ENDCHAR
STARTCHAR KWa
ENCODING 4803
SWIDTH 96 0
DWIDTH 16 0
BBX 14 14 0 -2
BITMAP
c300
7e00
1800
1b80
1fc0
0ce0
0c60
0c60
0c60
0060
0060
0060
01f8
030c
ENDCHAR
STARTCHAR KWE
ENCODING 4804
SWIDTH 96 0
DWIDTH 17 0
BBX 15 14 0 -2
BITMAP
c300
7e00
1800
1b80
1fc0
0ce0
0c60
0c60
0c60
0060
007c
0066
01fc
0300
ENDCHAR
STARTCHAR KWu/KW
ENCODING 4805
SWIDTH 96 0
DWIDTH 18 0
BBX 16 12 0 0
BITMAP
c300
7e00
180c
1b8c
1fff
0c63
0c60
0c60
0c60
0c60
0c60
0c60
ENDCHAR
STARTCHAR we
ENCODING 4808
SWIDTH 96 0
DWIDTH 13 0
BBX 11 8 0 1
BITMAP
3fc0
76e0
c660
c660
cc60
ccc0
edc0
7f00
ENDCHAR
STARTCHAR wu
ENCODING 4809
SWIDTH 96 0
DWIDTH 17 0
BBX 15 9 0 -1
BITMAP
3fc0
76e0
c660
c660
cc60
cce0
edc6
7ffc
000c
ENDCHAR
STARTCHAR wi
ENCODING 4810
SWIDTH 96 0
DWIDTH 13 0
BBX 11 12 0 0
BITMAP
3fc0
76e0
c660
c660
cc60
eec0
7f80
0c00
0c00
1c00
18c0
1fc0
ENDCHAR
STARTCHAR wa
ENCODING 4811
SWIDTH 96 0
DWIDTH 13 0
BBX 11 12 0 0
BITMAP
3fc0
76e0
c660
c660
cc60
eec0
7f80
0c00
0c00
0c00
0c00
1c00
ENDCHAR
STARTCHAR wE
ENCODING 4812
SWIDTH 96 0
DWIDTH 13 0
BBX 11 12 0 0
BITMAP
3fc0
76e0
c660
c660
cc60
eec0
7f80
0c00
0c00
1e00
1980
1f00
ENDCHAR
STARTCHAR w
ENCODING 4813
SWIDTH 96 0
DWIDTH 17 0
BBX 15 8 0 1
BITMAP
3fc0
76e0
c660
c67e
cc66
ccc2
edc0
7f00
ENDCHAR
STARTCHAR wo
ENCODING 4814
SWIDTH 96 0
DWIDTH 13 0
BBX 11 12 0 0
BITMAP
3fc0
76e0
c660
c660
cc60
eec0
7f80
0c00
1800
3000
6000
6000
ENDCHAR
STARTCHAR `e/e2
ENCODING 4816
SWIDTH 96 0
DWIDTH 10 0
BBX 8 11 0 0
BITMAP
1e00
6300
c300
c300
c300
c300
c300
c300
c300
7f00
6000
ENDCHAR
STARTCHAR `u/u2
ENCODING 4817
SWIDTH 96 0
DWIDTH 14 0
BBX 12 11 0 0
BITMAP
1e00
6300
c300
c300
c300
c300
c3f0
c330
c300
7f00
6000
ENDCHAR
STARTCHAR `i/i2
ENCODING 4818
SWIDTH 96 0
DWIDTH 14 0
BBX 12 11 0 0
BITMAP
3e00
6300
c300
c300
c300
7f80
0180
0180
0300
0330
03f0
ENDCHAR
STARTCHAR `a/A2
ENCODING 4819
SWIDTH 96 0
DWIDTH 11 0
BBX 9 11 0 0
BITMAP
3e00
6300
c300
c300
c300
7f80
0180
0180
0180
0300
0300
ENDCHAR
STARTCHAR `E/E2
ENCODING 4820
SWIDTH 96 0
DWIDTH 14 0
BBX 12 11 0 0
BITMAP
3e00
6300
c300
c300
c300
7f80
0180
0180
03e0
0330
03e0
ENDCHAR
STARTCHAR `I/I2
ENCODING 4821
SWIDTH 96 0
DWIDTH 10 0
BBX 8 13 0 0
BITMAP
1800
1800
1800
7e00
e300
c300
c300
c300
c300
c300
c300
7f00
6000
ENDCHAR
STARTCHAR `o/o2
ENCODING 4822
SWIDTH 96 0
DWIDTH 10 0
BBX 8 12 0 0
BITMAP
3c00
6600
c300
c300
c300
e700
7e00
3c00
7000
c000
c000
c000
ENDCHAR
STARTCHAR ze
ENCODING 4824
SWIDTH 96 0
DWIDTH 9 0
BBX 7 12 0 0
BITMAP
c600
c600
c600
c600
c600
fe00
fe00
c600
c600
c600
c600
c600
ENDCHAR
STARTCHAR zu
ENCODING 4825
SWIDTH 96 0
DWIDTH 13 0
BBX 11 12 0 0
BITMAP
c600
c600
c600
c600
c600
fe00
fe00
c7e0
c660
c660
c600
c600
ENDCHAR
STARTCHAR zi
ENCODING 4826
SWIDTH 96 0
DWIDTH 13 0
BBX 11 12 0 0
BITMAP
c600
c600
c600
c600
c600
fe00
fe00
c600
c600
c600
c660
c7e0
ENDCHAR
STARTCHAR za
ENCODING 4827
SWIDTH 96 0
DWIDTH 9 0
BBX 7 12 0 0
BITMAP
c600
c600
c600
c600
fe00
fe00
c600
c600
c600
0600
0600
0600
ENDCHAR
STARTCHAR zE
ENCODING 4828
SWIDTH 96 0
DWIDTH 13 0
BBX 11 12 0 0
BITMAP
c600
c600
c600
c600
c600
fe00
fe00
c600
c600
c7c0
c660
c7c0
ENDCHAR
STARTCHAR z
ENCODING 4829
SWIDTH 96 0
DWIDTH 12 0
BBX 10 12 0 0
BITMAP
70c0
d8c0
d8c0
18c0
18c0
1fc0
1fc0
18c0
18c0
18c0
18c0
18c0
ENDCHAR
STARTCHAR zo
ENCODING 4830
SWIDTH 96 0
DWIDTH 9 0
BBX 7 12 0 0
BITMAP
c600
c600
c600
c600
fe00
fe00
c600
c600
c600
c000
c000
c000
ENDCHAR
STARTCHAR zWa
ENCODING 4831
SWIDTH 96 0
DWIDTH 12 0
BBX 10 14 0 -2
BITMAP
c600
c600
c600
c600
fe00
fe00
c600
c600
c600
0600
0600
0600
1f80
30c0
ENDCHAR
STARTCHAR Ze
ENCODING 4832
SWIDTH 96 0
DWIDTH 14 0
BBX 12 12 0 0
BITMAP
70e0
d9b0
d9b0
1980
1980
1f80
1f80
1980
1980
1980
1980
1980
ENDCHAR
STARTCHAR Zu
ENCODING 4833
SWIDTH 96 0
DWIDTH 15 0
BBX 13 12 0 0
BITMAP
70e0
d9b0
d9b0
1980
1980
1f80
1f80
19f8
1998
1998
1980
1980
ENDCHAR
STARTCHAR Zi
ENCODING 4834
SWIDTH 96 0
DWIDTH 15 0
BBX 13 12 0 0
BITMAP
70e0
d9b0
d9b0
1980
1980
1f80
1f80
1980
1980
1980
1998
19f8
ENDCHAR
STARTCHAR Za
ENCODING 4835
SWIDTH 96 0
DWIDTH 14 0
BBX 12 12 0 0
BITMAP
70e0
d9b0
d9b0
1980
1f80
1f80
1980
1980
1980
0180
0180
0180
ENDCHAR
STARTCHAR ZE
ENCODING 4836
SWIDTH 96 0
DWIDTH 15 0
BBX 13 12 0 0
BITMAP
70e0
d9b0
d9b0
1980
1980
1f80
1f80
1980
1980
19f0
1998
19f0
ENDCHAR
STARTCHAR Z
ENCODING 4837
SWIDTH 96 0
DWIDTH 15 0
BBX 13 13 0 0
BITMAP
c300
7e00
1800
3870
6cd8
6cd8
0cc0
0fc0
0fc0
0cc0
0cc0
0cc0
0cc0
ENDCHAR
STARTCHAR Zo
ENCODING 4838
SWIDTH 96 0
DWIDTH 14 0
BBX 12 12 0 0
BITMAP
70e0
d9b0
d9b0
1980
1f80
1f80
1980
1980
1980
1800
1800
1800
ENDCHAR
STARTCHAR ZWa
ENCODING 4839
SWIDTH 96 0
DWIDTH 14 0
BBX 12 14 0 -2
BITMAP
70e0
d9b0
d9b0
1980
1f80
1f80
1980
1980
1980
0180
0180
0180
07e0
0c30
ENDCHAR
STARTCHAR ye
ENCODING 4840
SWIDTH 96 0
DWIDTH 9 0
BBX 7 12 0 0
BITMAP
3800
6c00
c600
c600
c600
c600
ec00
7800
3000
3000
3000
3000
ENDCHAR
STARTCHAR yu
ENCODING 4841
SWIDTH 96 0
DWIDTH 10 0
BBX 8 12 0 0
BITMAP
3800
6c00
c600
c600
c600
c600
ec00
7800
3000
3f00
3300
3000
ENDCHAR
STARTCHAR yi
ENCODING 4842
SWIDTH 96 0
DWIDTH 12 0
BBX 10 12 0 0
BITMAP
3800
6c00
c600
c600
c600
c600
ec00
7800
3300
3fc0
30c0
3000
ENDCHAR
STARTCHAR ya
ENCODING 4843
SWIDTH 96 0
DWIDTH 9 0
BBX 7 12 0 0
BITMAP
3800
6c00
c600
c600
c600
cc00
f800
7000
3800
0c00
3800
7000
ENDCHAR
STARTCHAR yE
ENCODING 4844
SWIDTH 96 0
DWIDTH 12 0
BBX 10 12 0 0
BITMAP
3800
6c00
c600
c600
c600
c600
ec00
7800
3780
3cc0
3780
3000
ENDCHAR
STARTCHAR y
ENCODING 4845
SWIDTH 96 0
DWIDTH 13 0
BBX 11 12 0 0
BITMAP
0f00
1980
3180
3180
3180
1b00
1e60
0e60
07c0
7c00
e000
c000
ENDCHAR
STARTCHAR yo
ENCODING 4846
SWIDTH 96 0
DWIDTH 13 0
BBX 11 12 0 0
BITMAP
3800
6c00
c600
c7e0
c660
c600
ec00
7800
3000
3000
3000
3000
ENDCHAR
STARTCHAR yWa
ENCODING 4847
SWIDTH 96 0
DWIDTH 11 0
BBX 9 15 0 -2
BITMAP
e380
7f00
1c00
1c00
3600
6300
6300
6300
6300
7600
3c00
1800
1800
1800
1800
ENDCHAR
STARTCHAR de
ENCODING 4848
SWIDTH 96 0
DWIDTH 12 0
BBX 10 12 0 0
BITMAP
1c00
3e00
6200
6200
6600
7c00
3000
1800
1800
0c00
ffc0
c0c0
ENDCHAR
STARTCHAR du
ENCODING 4849
SWIDTH 96 0
DWIDTH 14 0
BBX 12 12 0 0
BITMAP
1c00
3e00
6200
6600
7c00
3000
1800
7f00
c300
c3f0
0630
0600
ENDCHAR
STARTCHAR di
ENCODING 4850
SWIDTH 96 0
DWIDTH 13 0
BBX 11 12 0 0
BITMAP
1c00
3e00
6200
6600
7c00
3000
1800
7f00
c300
c300
0660
07e0
ENDCHAR
STARTCHAR da
ENCODING 4851
SWIDTH 96 0
DWIDTH 10 0
BBX 8 12 0 0
BITMAP
1c00
3e00
6200
6600
7c00
3000
1800
ff00
c300
c300
0300
0300
ENDCHAR
STARTCHAR dE
ENCODING 4852
SWIDTH 96 0
DWIDTH 13 0
BBX 11 12 0 0
BITMAP
1c00
3e00
6200
6200
6600
7c00
3000
1800
1800
0fc0
fe60
c3c0
ENDCHAR
STARTCHAR d
ENCODING 4853
SWIDTH 96 0
DWIDTH 13 0
BBX 11 12 0 0
BITMAP
1c00
3e00
63e0
6260
6600
7c00
3000
1800
1800
0c00
ffc0
c0c0
ENDCHAR
STARTCHAR do
ENCODING 4854
SWIDTH 96 0
DWIDTH 11 0
BBX 9 12 0 0
BITMAP
0e00
1f00
3100
3300
3e00
1c00
3f80
6180
c000
c000
c000
c000
ENDCHAR
STARTCHAR dWa
ENCODING 4855
SWIDTH 96 0
DWIDTH 13 0
BBX 11 14 0 -2
BITMAP
1c00
3e00
6200
6600
7c00
3000
1800
ff00
c300
c300
0300
0300
0fc0
1860
ENDCHAR
STARTCHAR De
ENCODING 4856
SWIDTH 96 0
DWIDTH 10 0
BBX 8 12 0 0
BITMAP
1000
1000
3800
7c00
c400
cc00
f800
6000
3000
1800
ff00
c300
ENDCHAR
STARTCHAR Du
ENCODING 4857
SWIDTH 96 0
DWIDTH 14 0
BBX 12 12 0 0
BITMAP
0800
0800
1c00
3e00
6200
6600
7c00
3000
7f00
c3f0
c630
0600
ENDCHAR
STARTCHAR Di
ENCODING 4858
SWIDTH 96 0
DWIDTH 13 0
BBX 11 12 0 0
BITMAP
0800
0800
1c00
3e00
6200
6600
7c00
3000
7f00
c300
c660
07e0
ENDCHAR
STARTCHAR Da
ENCODING 4859
SWIDTH 96 0
DWIDTH 10 0
BBX 8 12 0 0
BITMAP
0800
0800
1c00
3e00
6200
6600
7c00
3000
ff00
c300
0300
0300
ENDCHAR
STARTCHAR DE
ENCODING 4860
SWIDTH 96 0
DWIDTH 13 0
BBX 11 12 0 0
BITMAP
1000
1000
3800
7c00
c400
cc00
f800
6000
3000
1bc0
fe60
c3c0
ENDCHAR
STARTCHAR D
ENCODING 4861
SWIDTH 96 0
DWIDTH 12 0
BBX 10 12 0 0
BITMAP
1000
1000
3800
7c00
c7c0
ccc0
f800
6000
3000
1800
ff00
c300
ENDCHAR
STARTCHAR Do
ENCODING 4862
SWIDTH 96 0
DWIDTH 12 0
BBX 10 12 0 0
BITMAP
0400
0400
0e00
1f00
3100
3300
3e00
1fc0
30c0
6000
6000
6000
ENDCHAR
STARTCHAR DWa
ENCODING 4863
SWIDTH 96 0
DWIDTH 13 0
BBX 11 16 0 -2
BITMAP
0800
0800
1c00
3e00
6200
6600
7c00
3000
1800
ff00
c300
c300
0300
0300
0fc0
1860
ENDCHAR
STARTCHAR je
ENCODING 4864
SWIDTH 96 0
DWIDTH 12 0
BBX 10 13 0 0
BITMAP
c0c0
7f80
0c00
1e00
3300
3100
3300
1e00
1800
1c00
0c00
7f80
6180
ENDCHAR
STARTCHAR ju
ENCODING 4865
SWIDTH 96 0
DWIDTH 15 0
BBX 13 13 0 0
BITMAP
c0c0
7f80
0c00
1e00
3300
3300
1e00
0c00
3f80
6180
61f8
0318
0300
ENDCHAR
STARTCHAR ji
ENCODING 4866
SWIDTH 96 0
DWIDTH 14 0
BBX 12 13 0 0
BITMAP
c0c0
7f80
0c00
1e00
3300
3300
1e00
0c00
3f80
6180
6180
0330
03f0
ENDCHAR
STARTCHAR ja
ENCODING 4867
SWIDTH 96 0
DWIDTH 12 0
BBX 10 13 0 0
BITMAP
c0c0
7f80
0c00
1e00
3300
3300
1e00
0c00
7f80
6180
6180
0180
0180
ENDCHAR
STARTCHAR jE
ENCODING 4868
SWIDTH 96 0
DWIDTH 14 0
BBX 12 13 0 0
BITMAP
c0c0
7f80
0c00
1e00
3300
3100
3300
1e00
1800
1c00
0fe0
7f30
61e0
ENDCHAR
STARTCHAR j
ENCODING 4869
SWIDTH 96 0
DWIDTH 14 0
BBX 12 13 0 0
BITMAP
c0c0
7f80
0c00
1e00
3300
31f0
3330
1e00
1800
1c00
0c00
7f80
6180
ENDCHAR
STARTCHAR jo
ENCODING 4870
SWIDTH 96 0
DWIDTH 12 0
BBX 10 13 0 0
BITMAP
c0c0
7f80
0c00
1e00
3300
3300
1e00
1fc0
30c0
6000
6000
6000
6000
ENDCHAR
STARTCHAR jWa
ENCODING 4871
SWIDTH 96 0
DWIDTH 15 0
BBX 13 15 0 -2
BITMAP
c0c0
7f80
0c00
1e00
3300
3300
1e00
0c00
7f80
6180
6180
0180
0180
0ff0
1c38
ENDCHAR
STARTCHAR ge
ENCODING 4872
SWIDTH 96 0
DWIDTH 9 0
BBX 7 11 0 0
BITMAP
7c00
c600
c600
0600
0600
0600
0c00
0c00
0c00
0c00
0c00
ENDCHAR
STARTCHAR gu
ENCODING 4873
SWIDTH 96 0
DWIDTH 13 0
BBX 11 11 0 0
BITMAP
7c00
c600
c600
0600
0600
0600
0fe0
0c60
0c00
0c00
0c00
ENDCHAR
STARTCHAR gi
ENCODING 4874
SWIDTH 96 0
DWIDTH 12 0
BBX 10 11 0 0
BITMAP
7c00
c600
c600
0600
0600
0600
0c00
0c00
0c00
0cc0
0fc0
ENDCHAR
STARTCHAR ga
ENCODING 4875
SWIDTH 96 0
DWIDTH 9 0
BBX 7 11 0 0
BITMAP
7800
fe00
c600
0600
0600
0600
0c00
1c00
7800
e000
c000
ENDCHAR
STARTCHAR gE
ENCODING 4876
SWIDTH 96 0
DWIDTH 12 0
BBX 10 11 0 0
BITMAP
7c00
c600
c600
0600
0600
0600
0c00
0c00
0f80
0cc0
0f80
ENDCHAR
STARTCHAR g
ENCODING 4877
SWIDTH 96 0
DWIDTH 11 0
BBX 9 11 0 0
BITMAP
7f00
cd80
7980
0180
0180
0300
0300
0300
0300
0300
0300
ENDCHAR
STARTCHAR go
ENCODING 4878
SWIDTH 96 0
DWIDTH 9 0
BBX 7 12 0 0
BITMAP
1000
1000
1000
7c00
c600
c600
0600
0400
0c00
0c00
0c00
0c00
ENDCHAR
STARTCHAR gWe
ENCODING 4880
SWIDTH 96 0
DWIDTH 14 0
BBX 12 11 0 0
BITMAP
7c00
c600
c600
0600
0600
07e0
0eb0
0ce0
0c00
0c00
0c00
ENDCHAR
STARTCHAR gWi
ENCODING 4882
SWIDTH 96 0
DWIDTH 13 0
BBX 11 11 0 0
BITMAP
7c00
c600
c600
0600
06c0
06c0
0fc0
0c60
0c60
0c00
0c00
ENDCHAR
STARTCHAR gWa
ENCODING 4883
SWIDTH 96 0
DWIDTH 9 0
BBX 7 11 0 0
BITMAP
7800
cc00
cc00
0c00
7e00
6600
0600
0600
0600
0600
0600
ENDCHAR
STARTCHAR gWE
ENCODING 4884
SWIDTH 96 0
DWIDTH 12 0
BBX 10 13 0 -2
BITMAP
7c00
c600
c600
0600
0600
0600
0c00
0c00
0c00
0f80
0cc0
3f80
6000
ENDCHAR
STARTCHAR gWu/gW
ENCODING 4885
SWIDTH 96 0
DWIDTH 14 0
BBX 12 11 0 0
BITMAP
7c00
c6c0
c6c0
07f0
0630
0600
0e00
0c00
0c00
0c00
0c00
ENDCHAR
STARTCHAR Ge
ENCODING 4888
SWIDTH 96 0
DWIDTH 10 0
BBX 8 12 0 0
BITMAP
c300
7e00
0000
7c00
c600
c600
0600
0400
0c00
0c00
0c00
0c00
ENDCHAR
STARTCHAR Gu
ENCODING 4889
SWIDTH 96 0
DWIDTH 13 0
BBX 11 12 0 0
BITMAP
c300
7e00
0000
7c00
c600
c600
0600
0600
0fe0
0c60
0c00
0c00
ENDCHAR
STARTCHAR Gi
ENCODING 4890
SWIDTH 96 0
DWIDTH 12 0
BBX 10 12 0 0
BITMAP
c300
7e00
0000
7c00
c600
c600
0600
0400
0c00
0c00
0cc0
0fc0
ENDCHAR
STARTCHAR Ga
ENCODING 4891
SWIDTH 96 0
DWIDTH 10 0
BBX 8 12 0 0
BITMAP
c300
7e00
0000
3c00
7f00
4300
0300
0300
0e00
3c00
7000
e000
ENDCHAR
STARTCHAR GE
ENCODING 4892
SWIDTH 96 0
DWIDTH 12 0
BBX 10 12 0 0
BITMAP
c300
7e00
0000
7c00
c600
c600
0600
0400
0c00
0f80
0cc0
0f80
ENDCHAR
STARTCHAR G
ENCODING 4893
SWIDTH 96 0
DWIDTH 11 0
BBX 9 12 0 0
BITMAP
c300
7e00
0000
7f00
cd80
7980
0180
0100
0300
0300
0300
0300
ENDCHAR
STARTCHAR Go
ENCODING 4894
SWIDTH 96 0
DWIDTH 9 0
BBX 7 12 0 0
BITMAP
c600
7c00
1000
7c00
c600
c600
0600
0400
0c00
0c00
0c00
0c00
ENDCHAR
STARTCHAR GWa
ENCODING 4895
SWIDTH 96 0
DWIDTH 10 0
BBX 8 14 0 -2
BITMAP
c3
7e
00
78
cc
cc
0c
7e
66
06
06
06
06
06
ENDCHAR
STARTCHAR Te
ENCODING 4896
SWIDTH 96 0
DWIDTH 11 0
BBX 9 10 0 0
BITMAP
3e00
6b00
6b00
c980
c980
c980
c980
c980
c980
c980
ENDCHAR
STARTCHAR Tu
ENCODING 4897
SWIDTH 96 0
DWIDTH 15 0
BBX 13 10 0 0
BITMAP
3e00
6b00
6b00
c980
c980
c9f8
c998
c980
c980
c980
ENDCHAR
STARTCHAR Ti
ENCODING 4898
SWIDTH 96 0
DWIDTH 15 0
BBX 13 10 0 0
BITMAP
3e00
6b00
6b00
c980
c980
c980
c980
c980
c998
c9f8
ENDCHAR
STARTCHAR Ta
ENCODING 4899
SWIDTH 96 0
DWIDTH 11 0
BBX 9 11 0 0
BITMAP
3e00
6b00
6b00
c980
c980
c980
c980
0180
0180
0180
0180
ENDCHAR
STARTCHAR TE
ENCODING 4900
SWIDTH 96 0
DWIDTH 15 0
BBX 13 11 0 0
BITMAP
3e00
6b00
6b00
c980
c980
c980
c980
c980
c9f0
c998
c9f0
ENDCHAR
STARTCHAR T
ENCODING 4901
SWIDTH 96 0
DWIDTH 13 0
BBX 11 11 0 0
BITMAP
3f80
7fc0
4cc0
cc60
ce60
c660
0600
0600
0600
0600
0600
ENDCHAR
STARTCHAR To
ENCODING 4902
SWIDTH 96 0
DWIDTH 11 0
BBX 9 11 0 0
BITMAP
3e00
6b00
6b00
c980
c980
c980
c980
c000
c000
c000
c000
ENDCHAR
STARTCHAR TWa
ENCODING 4903
SWIDTH 96 0
DWIDTH 14 0
BBX 12 13 0 -2
BITMAP
3e00
6b00
6b00
c980
c980
c980
c980
0180
0180
0180
0180
07e0
0c30
ENDCHAR
STARTCHAR Ce
ENCODING 4904
SWIDTH 96 0
DWIDTH 17 0
BBX 15 10 0 0
BITMAP
1f80
3fc0
6260
c230
c230
c230
f338
dab6
cab2
fbbe
ENDCHAR
STARTCHAR Cu
ENCODING 4905
SWIDTH 96 0
DWIDTH 18 0
BBX 16 10 0 0
BITMAP
1f80
3fc0
6260
c230
c23f
c233
f338
dab4
cab2
fbbe
ENDCHAR
STARTCHAR Ci
ENCODING 4906
SWIDTH 96 0
DWIDTH 18 0
BBX 16 10 0 0
BITMAP
1f80
3fc0
6260
c230
c230
c230
f330
dab0
cab3
fbbf
ENDCHAR
STARTCHAR Ca
ENCODING 4907
SWIDTH 96 0
DWIDTH 16 0
BBX 14 12 0 0
BITMAP
1fc0
3fe0
6230
c230
e330
d2b0
cab0
fbb0
0030
0068
0064
007c
ENDCHAR
STARTCHAR CE
ENCODING 4908
SWIDTH 96 0
DWIDTH 18 0
BBX 16 10 0 0
BITMAP
1f80
3fc0
6260
c23f
c239
c237
f330
dabc
cab2
fbbe
ENDCHAR
STARTCHAR C
ENCODING 4909
SWIDTH 96 0
DWIDTH 16 0
BBX 14 11 0 0
BITMAP
1fc0
7fe0
c630
e638
9724
f33c
0300
0380
0340
0320
03e0
ENDCHAR
STARTCHAR Co
ENCODING 4910
SWIDTH 96 0
DWIDTH 16 0
BBX 14 12 0 0
BITMAP
1fc0
3fe0
3430
6430
4630
c528
c4a4
c738
e000
d000
c800
f800
ENDCHAR
STARTCHAR CWa
ENCODING 4911
SWIDTH 96 0
DWIDTH 16 0
BBX 14 13 0 -2
BITMAP
1fc0
3fe0
6230
c230
e330
d2b0
cab0
fbb0
0030
0060
0060
01f8
030c
ENDCHAR
STARTCHAR Pe
ENCODING 4912
SWIDTH 96 0
DWIDTH 10 0
BBX 8 12 0 0
BITMAP
1800
1800
1800
3c00
6600
6600
3c00
7e00
e700
c300
c300
c300
ENDCHAR
STARTCHAR Pu
ENCODING 4913
SWIDTH 96 0
DWIDTH 14 0
BBX 12 12 0 0
BITMAP
1800
1800
1800
3c00
6600
6600
3c00
7e00
e700
c3f0
c330
c300
ENDCHAR
STARTCHAR Pi
ENCODING 4914
SWIDTH 96 0
DWIDTH 14 0
BBX 12 12 0 0
BITMAP
1800
1800
1800
3c00
6600
6600
3c00
7e00
e700
c300
c330
c3f0
ENDCHAR
STARTCHAR Pa
ENCODING 4915
SWIDTH 96 0
DWIDTH 10 0
BBX 8 12 0 0
BITMAP
1800
1800
1800
3c00
6600
3c00
7e00
e700
c700
c300
0300
0300
ENDCHAR
STARTCHAR PE
ENCODING 4916
SWIDTH 96 0
DWIDTH 14 0
BBX 12 12 0 0
BITMAP
1800
1800
1800
3c00
6600
6600
3c00
7e00
e700
c3e0
c330
c3e0
ENDCHAR
STARTCHAR P
ENCODING 4917
SWIDTH 96 0
DWIDTH 13 0
BBX 11 12 0 0
BITMAP
1800
1800
1800
3c00
67e0
6660
3c00
7e00
e700
c300
c300
c300
ENDCHAR
STARTCHAR Po
ENCODING 4918
SWIDTH 96 0
DWIDTH 10 0
BBX 8 12 0 0
BITMAP
1800
1800
1800
3c00
6600
3c00
7e00
e700
c300
c300
c000
c000
ENDCHAR
STARTCHAR PWa
ENCODING 4919
SWIDTH 96 0
DWIDTH 13 0
BBX 11 14 0 -2
BITMAP
1800
1800
1800
3c00
6600
3c00
7e00
e700
c300
c300
0300
0300
0fc0
1860
ENDCHAR
STARTCHAR Se
ENCODING 4920
SWIDTH 96 0
DWIDTH 10 0
BBX 8 10 0 0
BITMAP
1800
3c00
6600
6600
3c00
7e00
e700
c300
c300
c300
ENDCHAR
STARTCHAR Su
ENCODING 4921
SWIDTH 96 0
DWIDTH 14 0
BBX 12 10 0 0
BITMAP
1800
3c00
6600
6600
3c00
7e00
e700
c3f0
c330
c300
ENDCHAR
STARTCHAR Si
ENCODING 4922
SWIDTH 96 0
DWIDTH 14 0
BBX 12 10 0 0
BITMAP
1800
3c00
6600
6600
3c00
7e00
e700
c300
c330
c3f0
ENDCHAR
STARTCHAR Sa
ENCODING 4923
SWIDTH 96 0
DWIDTH 10 0
BBX 8 11 0 0
BITMAP
1800
3c00
6600
6600
3c00
7e00
e600
c700
c300
0300
0300
ENDCHAR
STARTCHAR SE
ENCODING 4924
SWIDTH 96 0
DWIDTH 13 0
BBX 11 10 0 0
BITMAP
1800
3c00
6600
6600
3c00
7e00
e700
c3c0
c360
c3c0
ENDCHAR
STARTCHAR S
ENCODING 4925
SWIDTH 96 0
DWIDTH 13 0
BBX 11 10 0 0
BITMAP
1800
3c00
67e0
6660
3c00
7e00
e700
c300
c300
c300
ENDCHAR
STARTCHAR So
ENCODING 4926
SWIDTH 96 0
DWIDTH 10 0
BBX 8 11 0 0
BITMAP
1800
3c00
6600
6600
3c00
7e00
e700
c300
c300
c000
c000
ENDCHAR
STARTCHAR SWa
ENCODING 4927
SWIDTH 96 0
DWIDTH 13 0
BBX 11 13 0 -2
BITMAP
1800
3c00
6600
6600
3c00
7e00
e600
c700
c300
0300
0300
0fc0
1860
ENDCHAR
STARTCHAR `Se/S2e
ENCODING 4928
SWIDTH 96 0
DWIDTH 10 0
BBX 8 11 0 0
BITMAP
1e00
6300
c300
c300
c300
ff00
c300
c300
c300
7f00
6000
ENDCHAR
STARTCHAR `Su/S2u
ENCODING 4929
SWIDTH 96 0
DWIDTH 14 0
BBX 12 11 0 0
BITMAP
1e00
6300
c300
c300
c300
ff00
c3f0
c330
c300
7f00
6000
ENDCHAR
STARTCHAR `Si/S2i
ENCODING 4930
SWIDTH 96 0
DWIDTH 13 0
BBX 11 12 0 0
BITMAP
7e00
c300
c300
ff00
c300
c300
7f00
0300
0300
0300
0330
03f0
ENDCHAR
STARTCHAR `Sa/S2a
ENCODING 4931
SWIDTH 96 0
DWIDTH 11 0
BBX 9 12 0 0
BITMAP
7e00
c300
c300
ff00
c300
c300
7f00
0300
0300
0300
0300
0300
ENDCHAR
STARTCHAR `SE/S2E
ENCODING 4932
SWIDTH 96 0
DWIDTH 14 0
BBX 12 12 0 0
BITMAP
7e00
c300
c300
ff00
c300
c300
7f00
0300
0300
03e0
0330
03e0
ENDCHAR
STARTCHAR `S/S2
ENCODING 4933
SWIDTH 96 0
DWIDTH 10 0
BBX 8 13 0 0
BITMAP
1800
1800
1800
7e00
e300
c300
c300
ff00
c300
c300
c300
7f00
6000
ENDCHAR
STARTCHAR `So/S2o
ENCODING 4934
SWIDTH 96 0
DWIDTH 10 0
BBX 8 12 0 0
BITMAP
3c00
6600
c300
ff00
c300
e700
7e00
3c00
7000
c000
c000
c000
ENDCHAR
STARTCHAR fe
ENCODING 4936
SWIDTH 96 0
DWIDTH 12 0
BBX 10 11 0 0
BITMAP
0600
0200
0600
0c00
1800
3000
7800
cc00
c440
7fc0
1f40
ENDCHAR
STARTCHAR fu
ENCODING 4937
SWIDTH 96 0
DWIDTH 11 0
BBX 9 12 0 0
BITMAP
0400
0c00
1800
3000
6000
f800
c880
cf80
fe00
1800
3000
3000
ENDCHAR
STARTCHAR fi
ENCODING 4938
SWIDTH 96 0
DWIDTH 12 0
BBX 10 11 0 0
BITMAP
0600
0200
0600
0c00
1800
3000
78c0
cc40
c4c0
7f80
3e00
ENDCHAR
STARTCHAR fa
ENCODING 4939
SWIDTH 96 0
DWIDTH 12 0
BBX 10 12 0 0
BITMAP
0800
0c00
1800
1000
3000
7000
d800
cc80
7fc0
0c40
0c00
0c00
ENDCHAR
STARTCHAR fE
ENCODING 4940
SWIDTH 96 0
DWIDTH 13 0
BBX 11 12 0 0
BITMAP
0600
0200
0600
0c00
1800
3000
7800
cc00
c4c0
7fa0
1f20
01c0
ENDCHAR
STARTCHAR f
ENCODING 4941
SWIDTH 96 0
DWIDTH 10 0
BBX 8 12 0 0
BITMAP
3e00
6700
4300
c000
c000
f800
cf00
dd00
6c00
0c00
0c00
0c00
ENDCHAR
STARTCHAR fo
ENCODING 4942
SWIDTH 96 0
DWIDTH 12 0
BBX 10 11 0 0
BITMAP
1f80
3e40
63c0
c000
c000
c000
f000
e800
c4c0
6d80
3f80
ENDCHAR
STARTCHAR fWa
ENCODING 4943
SWIDTH 96 0
DWIDTH 12 0
BBX 10 13 0 -2
BITMAP
0800
0c00
1800
1000
3000
7000
d800
cc80
7fc0
0c40
0c00
3f00
6180
ENDCHAR
STARTCHAR pe
ENCODING 4944
SWIDTH 96 0
DWIDTH 12 0
BBX 10 12 0 0
BITMAP
6180
7f80
ffc0
ccc0
0c00
0c00
0c00
0c00
0c00
0c00
0c00
0c00
ENDCHAR
STARTCHAR pu
ENCODING 4945
SWIDTH 96 0
DWIDTH 12 0
BBX 10 12 0 0
BITMAP
6180
7f80
ffc0
ccc0
0c00
0c00
0c00
0fc0
0cc0
0c00
0c00
0c00
ENDCHAR
STARTCHAR pi
ENCODING 4946
SWIDTH 96 0
DWIDTH 12 0
BBX 10 12 0 0
BITMAP
6180
7f80
ffc0
ccc0
0c00
0c00
0c00
0c00
0c00
0c00
0cc0
0fc0
ENDCHAR
STARTCHAR pa
ENCODING 4947
SWIDTH 96 0
DWIDTH 12 0
BBX 10 12 0 0
BITMAP
6180
7f80
ffc0
ccc0
0c00
0c00
0c00
0c00
1800
3000
6000
4000
ENDCHAR
STARTCHAR pE
ENCODING 4948
SWIDTH 96 0
DWIDTH 12 0
BBX 10 12 0 0
BITMAP
6180
7f80
ffc0
ccc0
0c00
0c00
0c00
0c00
0c00
0f80
0cc0
0f80
ENDCHAR
STARTCHAR p
ENCODING 4949
SWIDTH 96 0
DWIDTH 12 0
BBX 10 12 0 0
BITMAP
6180
7f80
ffc0
ccc0
0c00
0f00
0300
0300
0300
0300
0300
0300
ENDCHAR
STARTCHAR po
ENCODING 4950
SWIDTH 96 0
DWIDTH 12 0
BBX 10 12 0 0
BITMAP
6180
7f80
ffc0
ccc0
0c00
0c00
1800
1800
3000
3000
3000
3000
ENDCHAR
STARTCHAR pWa
ENCODING 4951
SWIDTH 96 0
DWIDTH 12 0
BBX 10 14 0 -2
BITMAP
6180
7f80
ffc0
ccc0
0c00
0c00
0c00
0c00
0c00
0c00
0c00
0c00
7f80
e1c0
ENDCHAR
STARTCHAR mYa
ENCODING 4952
SWIDTH 96 0
DWIDTH 18 0
BBX 16 16 0 -2
BITMAP
1c1c
07f0
01c0
0ffc
1ffc
3144
2144
2284
3efc
1c7c
0008
0008
0010
0010
0010
0000
ENDCHAR
STARTCHAR rYa
ENCODING 4953
SWIDTH 96 0
DWIDTH 18 0
BBX 16 16 0 -2
BITMAP
0000
1818
0ff0
0180
0180
0180
0300
0700
0e00
1c00
1860
1870
1c30
0fe0
07c0
0000
ENDCHAR
STARTCHAR fYa
ENCODING 4954
SWIDTH 96 0
DWIDTH 18 0
BBX 16 16 0 -2
BITMAP
0000
1818
0ff0
0180
0080
0180
0300
0600
0c00
1e30
3310
3130
1fe0
0f80
0000
0000
ENDCHAR
STARTCHAR Space
ENCODING 4960
SWIDTH 96 0
DWIDTH 14 0
BBX 12 12 0 0
BITMAP
0000
0000
0000
0000
0000
0000
0000
0000
0000
0000
0000
0000
ENDCHAR
STARTCHAR Ethiopic-Wordspace
ENCODING 4961
SWIDTH 96 0
DWIDTH 8 0
BBX 2 6 2 2
BITMAP
c000
c000
0000
0000
c000
c000
ENDCHAR
STARTCHAR Ethiopic-Full-Stop
ENCODING 4962
SWIDTH 96 0
DWIDTH 8 0
BBX 6 6 0 2
BITMAP
cc00
cc00
0000
0000
cc00
cc00
ENDCHAR
STARTCHAR Ethiopic-Comma
ENCODING 4963
SWIDTH 96 0
DWIDTH 8 0
BBX 6 7 0 2
BITMAP
fc00
0000
3000
3000
0000
3000
3000
ENDCHAR
STARTCHAR Ethiopic-Semicolon
ENCODING 4964
SWIDTH 96 0
DWIDTH 8 0
BBX 6 9 0 1
BITMAP
fc00
0000
3000
3000
0000
3000
3000
0000
fc00
ENDCHAR
STARTCHAR Ethiopic-Colon
ENCODING 4965
SWIDTH 96 0
DWIDTH 8 0
BBX 6 7 0 2
BITMAP
3000
3000
0000
fc00
0000
3000
3000
ENDCHAR
STARTCHAR Ethiopic-Preface-Colon
ENCODING 4966
SWIDTH 96 0
DWIDTH 8 0
BBX 6 7 0 2
BITMAP
c0
c0
00
7c
00
c0
c0
ENDCHAR
STARTCHAR Ethiopic-Question-Mark
ENCODING 4967
SWIDTH 96 0
DWIDTH 4 0
BBX 2 10 0 1
BITMAP
c0
c0
00
00
c0
c0
00
00
c0
c0
ENDCHAR
STARTCHAR Ethiopic-End-Paragraph
ENCODING 4968
SWIDTH 96 0
DWIDTH 10 0
BBX 8 9 0 1
BITMAP
1800
1800
c300
db00
1800
c300
c300
1800
1800
ENDCHAR
STARTCHAR Ethiopic-1
ENCODING 4969
SWIDTH 96 0
DWIDTH 11 0
BBX 9 13 0 -1
BITMAP
c180
7f00
0000
0c00
0c00
1800
3e00
6300
6300
3e00
0000
7f00
c180
ENDCHAR
STARTCHAR Ethiopic-2
ENCODING 4970
SWIDTH 96 0
DWIDTH 11 0
BBX 9 13 0 -1
BITMAP
c180
7f00
0000
1c00
3600
6600
7c00
6000
7c00
3600
1c00
7f00
c180
ENDCHAR
STARTCHAR Ethiopic-3
ENCODING 4971
SWIDTH 96 0
DWIDTH 10 0
BBX 8 12 0 -1
BITMAP
c300
7e00
0000
7e00
6600
6000
6000
6000
6000
0000
7e00
c300
ENDCHAR
STARTCHAR Ethiopic-4
ENCODING 4972
SWIDTH 96 0
DWIDTH 10 0
BBX 8 12 0 -1
BITMAP
c300
7e00
0000
3c00
6600
6600
6600
6600
3c00
0000
7e00
c300
ENDCHAR
STARTCHAR Ethiopic-5
ENCODING 4973
SWIDTH 96 0
DWIDTH 11 0
BBX 9 13 0 -1
BITMAP
c180
7f00
0000
1800
1800
3f00
7300
6000
6300
3f00
0000
7f00
c180
ENDCHAR
STARTCHAR Ethiopic-6
ENCODING 4974
SWIDTH 96 0
DWIDTH 11 0
BBX 9 14 0 -1
BITMAP
c180
7f00
0000
3c00
7e00
6600
0600
0c00
0e00
1b00
1e00
0000
7f00
c180
ENDCHAR
STARTCHAR Ethiopic-7
ENCODING 4975
SWIDTH 96 0
DWIDTH 11 0
BBX 9 14 0 -1
BITMAP
c180
7f00
0000
3c00
7e00
6600
0600
0c00
0800
1900
1f00
0000
7f00
c180
ENDCHAR
STARTCHAR Ethiopic-8
ENCODING 4976
SWIDTH 96 0
DWIDTH 12 0
BBX 10 13 0 -1
BITMAP
c0c0
7f80
0000
7f80
6d80
0c00
0c00
0c00
7f80
6180
0000
7f80
c0c0
ENDCHAR
STARTCHAR Ethiopic-9
ENCODING 4977
SWIDTH 96 0
DWIDTH 10 0
BBX 8 13 0 -1
BITMAP
c300
7e00
0000
0000
6600
6600
7e00
6600
6400
3800
0000
7e00
c300
ENDCHAR
STARTCHAR Ethiopic-10
ENCODING 4978
SWIDTH 96 0
DWIDTH 10 0
BBX 8 12 0 -1
BITMAP
c300
7e00
0000
1800
1800
1800
1800
1800
1800
0000
7e00
c300
ENDCHAR
STARTCHAR Ethiopic-20
ENCODING 4979
SWIDTH 96 0
DWIDTH 12 0
BBX 10 12 0 -1
BITMAP
c0c0
7f80
0000
3f00
2d00
0c00
1e00
3300
3300
0000
7f80
c0c0
ENDCHAR
STARTCHAR Ethiopic-30
ENCODING 4980
SWIDTH 96 0
DWIDTH 12 0
BBX 10 12 0 -1
BITMAP
c0c0
7f80
0000
2f00
6d80
6d80
6d80
6d80
3980
0000
7f80
c0c0
ENDCHAR
STARTCHAR Ethiopic-40
ENCODING 4981
SWIDTH 96 0
DWIDTH 12 0
BBX 10 13 0 -1
BITMAP
c0c0
7f80
0000
6d80
6d80
6d80
3f80
0180
0180
0180
0000
7f80
c0c0
ENDCHAR
STARTCHAR Ethiopic-50
ENCODING 4982
SWIDTH 96 0
DWIDTH 10 0
BBX 8 13 0 -1
BITMAP
c300
7e00
0000
3e00
6600
3e00
0600
0c00
0c00
0c00
0000
7e00
c300
ENDCHAR
STARTCHAR Ethiopic-60
ENCODING 4983
SWIDTH 96 0
DWIDTH 12 0
BBX 10 13 0 -1
BITMAP
c0c0
7f80
0000
7f80
6d80
0c00
0e00
0600
7f80
6180
0000
7f80
c0c0
ENDCHAR
STARTCHAR Ethiopic-70
ENCODING 4984
SWIDTH 96 0
DWIDTH 10 0
BBX 8 12 0 -1
BITMAP
c300
7e00
0000
3e00
6b00
6e00
6000
6600
3e00
0000
7e00
c300
ENDCHAR
STARTCHAR Ethiopic-80
ENCODING 4985
SWIDTH 96 0
DWIDTH 13 0
BBX 11 12 0 -1
BITMAP
c060
7fc0
0000
7fc0
5b40
1b00
1b00
1b00
1b00
0000
7fc0
c060
ENDCHAR
STARTCHAR Ethiopic-90
ENCODING 4986
SWIDTH 96 0
DWIDTH 11 0
BBX 9 14 0 -1
BITMAP
c180
7f00
0000
3e00
3600
0c00
0e00
0600
0c00
0c00
0c00
0000
7f00
c180
ENDCHAR
STARTCHAR Ethiopic-100
ENCODING 4987
SWIDTH 96 0
DWIDTH 10 0
BBX 8 13 0 -1
BITMAP
c300
7e00
0000
3c00
6600
7c00
6000
3000
3000
3000
0000
7e00
c300
ENDCHAR
STARTCHAR Ethiopic-10000
ENCODING 4988
SWIDTH 96 0
DWIDTH 14 0
BBX 12 13 0 -1
BITMAP
c030
7fe0
0000
79e0
cf30
fbe0
c300
6180
6180
6180
0000
7fe0
c030
ENDCHAR
STARTCHAR `qe/q2e
ENCODING 4992
SWIDTH 96 0
DWIDTH 12 0
BBX 10 14 0 -2
BITMAP
7380
3300
1e00
0c00
0c00
3f80
6cc0
ccc0
cd80
7e00
0c00
0c00
0c00
0c00
ENDCHAR
STARTCHAR `qu/q2u
ENCODING 4993
SWIDTH 96 0
DWIDTH 12 0
BBX 10 14 0 -2
BITMAP
7380
3300
1e00
0c00
0c00
1f80
6cc0
ccc0
cd80
7e00
0c00
0fc0
0cc0
0c00
ENDCHAR
STARTCHAR `qi/q2i
ENCODING 4994
SWIDTH 96 0
DWIDTH 12 0
BBX 10 14 0 -2
BITMAP
7380
3300
1e00
0c00
0c00
1f80
6cc0
ccc0
cd80
7e00
0c00
0c00
0cc0
0fc0
ENDCHAR
STARTCHAR `qa/q2a
ENCODING 4995
SWIDTH 96 0
DWIDTH 12 0
BBX 10 14 0 -2
BITMAP
7380
3300
1e00
0c00
0c00
1f80
6cc0
ccc0
cd80
7e00
0c00
1800
3000
6000
ENDCHAR
STARTCHAR `qE/q2E
ENCODING 4996
SWIDTH 96 0
DWIDTH 12 0
BBX 10 14 0 -2
BITMAP
7380
3300
1e00
0c00
0c00
1f80
6cc0
ccc0
cd80
7e00
0c00
0f80
0cc0
0f80
ENDCHAR
STARTCHAR `q/q2
ENCODING 4997
SWIDTH 96 0
DWIDTH 13 0
BBX 11 14 0 -2
BITMAP
e700
6600
3c00
1800
1e00
0600
0fc0
3660
6660
66c0
3f00
0600
0600
0600
ENDCHAR
STARTCHAR `qo/q2o
ENCODING 4998
SWIDTH 96 0
DWIDTH 12 0
BBX 10 14 0 -2
BITMAP
39c0
1980
0f00
0900
0b00
0c00
1f80
6cc0
ccc0
cd80
7e00
0c00
0c00
0c00
ENDCHAR
STARTCHAR mWe
ENCODING 5000
SWIDTH 96 0
DWIDTH 19 0
BBX 17 8 0 -2
BITMAP
3ff000
7ff000
449000
c59f00
8d1580
993700
f1e000
f1c000
ENDCHAR
STARTCHAR bWe
ENCODING 5001
SWIDTH 96 0
DWIDTH 17 0
BBX 15 11 0 -2
BITMAP
0e00
1f00
3180
3180
3180
31fc
3196
319c
3180
3180
3180
ENDCHAR
STARTCHAR GWe
ENCODING 5002
SWIDTH 96 0
DWIDTH 14 0
BBX 12 14 0 -2
BITMAP
c300
7e00
0000
7c00
c600
c600
0600
0600
07e0
0eb0
0ce0
0c00
0c00
0c00
ENDCHAR
STARTCHAR fWe
ENCODING 5003
SWIDTH 96 0
DWIDTH 14 0
BBX 12 11 0 -2
BITMAP
0600
0200
0600
0fe0
18b0
30e0
7800
cc00
c440
7fc0
1f40
ENDCHAR
STARTCHAR pWe
ENCODING 5004
SWIDTH 96 0
DWIDTH 14 0
BBX 12 12 0 -2
BITMAP
6180
7f80
ffc0
ccc0
0c00
0c00
0fe0
0cb0
0ce0
0c00
0c00
0c00
ENDCHAR
STARTCHAR `ke/k2e
ENCODING 5008
SWIDTH 96 0
DWIDTH 13 0
BBX 11 13 0 -2
BITMAP
0440
0c60
c6c0
cf80
ff00
f180
3180
3180
3180
3180
3180
3180
3180
ENDCHAR
STARTCHAR `ku/k2u
ENCODING 5009
SWIDTH 96 0
DWIDTH 15 0
BBX 13 13 0 -2
BITMAP
0440
0c60
c6c0
cf80
ff00
f180
3180
3180
31f8
3198
3180
3180
3180
ENDCHAR
STARTCHAR `ki/k2i
ENCODING 5010
SWIDTH 96 0
DWIDTH 15 0
BBX 13 13 0 -2
BITMAP
0440
0c60
c6c0
cf80
ff00
f180
3180
3180
3180
3180
3180
3198
31f8
ENDCHAR
STARTCHAR `ka/k2a
ENCODING 5011
SWIDTH 96 0
DWIDTH 13 0
BBX 11 13 0 -2
BITMAP
0440
0c60
c6c0
cf80
ff00
f180
3180
3180
3180
3180
0180
0180
0180
ENDCHAR
STARTCHAR `kE/k2E
ENCODING 5012
SWIDTH 96 0
DWIDTH 15 0
BBX 13 13 0 -2
BITMAP
0440
0c60
c6c0
cf80
ff00
f180
3180
3180
3180
3180
31f0
3198
31f0
ENDCHAR
STARTCHAR `k/k2
ENCODING 5013
SWIDTH 96 0
DWIDTH 13 0
BBX 11 13 0 -2
BITMAP
0440
0c60
c6c0
cf80
df00
f180
6180
7180
3180
3180
3180
3180
3180
ENDCHAR
STARTCHAR `ko/k2o
ENCODING 5014
SWIDTH 96 0
DWIDTH 13 0
BBX 11 13 0 -2
BITMAP
0440
0c60
c6c0
cf80
ff00
f180
3180
3180
3180
3180
3000
3000
3000
ENDCHAR
STARTCHAR mWi
ENCODING 5016
SWIDTH 96 0
DWIDTH 18 0
BBX 16 12 0 -2
BITMAP
7fc0
7fec
ca2c
8a3c
8a27
8be3
f9c0
7800
0800
1800
3000
6000
ENDCHAR
STARTCHAR bWi
ENCODING 5017
SWIDTH 96 0
DWIDTH 17 0
BBX 15 11 0 -2
BITMAP
0e00
1f00
3198
3198
31f8
318e
3186
3180
3180
3180
3180
ENDCHAR
STARTCHAR GWi
ENCODING 5018
SWIDTH 96 0
DWIDTH 14 0
BBX 12 14 0 -2
BITMAP
c300
7e00
0000
7c00
c600
c600
0600
06c0
06c0
0fc0
0c70
0c30
0c00
0c00
ENDCHAR
STARTCHAR fWi
ENCODING 5019
SWIDTH 96 0
DWIDTH 14 0
BBX 12 11 0 -2
BITMAP
0600
02c0
06c0
0fc0
1870
3030
7800
cc00
c440
7fc0
1f40
ENDCHAR
STARTCHAR pWi
ENCODING 5020
SWIDTH 96 0
DWIDTH 13 0
BBX 11 12 0 -2
BITMAP
6180
7f80
ffc0
ccc0
0c00
0cc0
0cc0
0fc0
0c60
0c60
0c00
0c00
ENDCHAR
STARTCHAR Xe
ENCODING 5024
SWIDTH 96 0
DWIDTH 14 0
BBX 12 14 0 -2
BITMAP
7380
3300
1e00
edc0
7f80
0c00
0de0
0ff0
0630
0630
0630
0630
0630
0630
ENDCHAR
STARTCHAR Xu
ENCODING 5025
SWIDTH 96 0
DWIDTH 18 0
BBX 16 14 0 -2
BITMAP
7380
3300
1e00
edc0
7f80
0c00
0de0
0ff0
063f
0633
0630
0630
0630
0630
ENDCHAR
STARTCHAR Xi
ENCODING 5026
SWIDTH 96 0
DWIDTH 18 0
BBX 16 14 0 -2
BITMAP
7380
3300
1e00
edc0
7f80
0c00
0de0
0ff0
0630
0630
0630
0630
0633
063f
ENDCHAR
STARTCHAR Xa
ENCODING 5027
SWIDTH 96 0
DWIDTH 14 0
BBX 12 14 0 -2
BITMAP
7380
3300
1e00
edc0
7f80
0c00
0de0
0ff0
0630
0630
0630
0630
0030
0030
ENDCHAR
STARTCHAR  XE
ENCODING 5028
SWIDTH 96 0
DWIDTH 18 0
BBX 16 14 0 -2
BITMAP
7380
3300
1e00
edc0
7f80
0c00
0de0
0ff0
0630
0630
0630
063e
0633
063e
ENDCHAR
STARTCHAR X
ENCODING 5029
SWIDTH 96 0
DWIDTH 15 0
BBX 13 14 0 -2
BITMAP
7380
3300
1e00
edc0
7f80
0c00
0ff0
03f8
0318
0318
0398
0198
0198
0198
ENDCHAR
STARTCHAR Xo
ENCODING 5030
SWIDTH 96 0
DWIDTH 14 0
BBX 12 14 0 -2
BITMAP
7380
3300
1e00
edc0
7f80
0c60
0df0
0fb0
0630
0630
0630
0630
0600
0600
ENDCHAR
STARTCHAR mWE
ENCODING 5032
SWIDTH 96 0
DWIDTH 17 0
BBX 15 14 0 -2
BITMAP
1ff8
3ff8
6288
4288
4508
7df8
38f8
0010
0010
003c
0026
00fc
0180
0100
ENDCHAR
STARTCHAR bWE
ENCODING 5033
SWIDTH 96 0
DWIDTH 15 0
BBX 13 13 0 -2
BITMAP
0700
0f80
18c0
18c0
18c0
18c0
18c0
18c0
18c0
18f8
18c8
03f8
0600
ENDCHAR
STARTCHAR GWE
ENCODING 5034
SWIDTH 96 0
DWIDTH 12 0
BBX 10 16 0 -2
BITMAP
c300
7e00
0000
7c00
c600
c600
0600
0600
0600
0c00
0c00
0c00
0f80
0cc0
3f80
6000
ENDCHAR
STARTCHAR fWE
ENCODING 5035
SWIDTH 96 0
DWIDTH 12 0
BBX 10 15 0 -4
BITMAP
0600
0600
0c00
1800
3000
7c00
6440
67c0
7f40
0c00
0c00
0f00
1980
7f00
c000
ENDCHAR
STARTCHAR pWE
ENCODING 5036
SWIDTH 96 0
DWIDTH 12 0
BBX 10 13 0 -2
BITMAP
6180
7f80
ffc0
ccc0
0c00
0c00
0c00
0c00
0c00
0f80
0cc0
3f80
6000
ENDCHAR
STARTCHAR `ge/g2e
ENCODING 5040
SWIDTH 96 0
DWIDTH 9 0
BBX 7 14 0 -2
BITMAP
66
3c
18
7c
c6
c6
06
06
06
0c
0c
0c
0c
0c
ENDCHAR
STARTCHAR `gu/g2u
ENCODING 5041
SWIDTH 96 0
DWIDTH 13 0
BBX 11 14 0 -2
BITMAP
6600
3c00
1800
7c00
c600
c600
0600
0600
0600
0fe0
0c60
0c00
0c00
0c00
ENDCHAR
STARTCHAR `gi/g2i
ENCODING 5042
SWIDTH 96 0
DWIDTH 12 0
BBX 10 14 0 -2
BITMAP
6600
3c00
1800
7c00
c600
c600
0600
0600
0e00
0c00
0c00
0c00
0cc0
0fc0
ENDCHAR
STARTCHAR `ga/g2a
ENCODING 5043
SWIDTH 96 0
DWIDTH 9 0
BBX 7 14 0 -2
BITMAP
66
3c
18
7c
fe
c6
06
06
06
0c
1c
78
e0
c0
ENDCHAR
STARTCHAR `gE/g2E
ENCODING 5044
SWIDTH 96 0
DWIDTH 12 0
BBX 10 14 0 -2
BITMAP
6600
3c00
1800
7c00
c600
c600
0600
0600
0600
0c00
0c00
0f80
0cc0
0f80
ENDCHAR
STARTCHAR `g/g2
ENCODING 5045
SWIDTH 96 0
DWIDTH 11 0
BBX 9 14 0 -2
BITMAP
1980
0f00
0600
7f00
cd80
7980
0180
0180
0300
0300
0300
0300
0300
0300
ENDCHAR
STARTCHAR `go/g2o
ENCODING 5046
SWIDTH 96 0
DWIDTH 9 0
BBX 7 14 0 -2
BITMAP
00
6c
38
10
10
7c
c6
c6
06
04
0c
0c
0c
0c
ENDCHAR
STARTCHAR mWu/mW
ENCODING 5048
SWIDTH 96 0
DWIDTH 18 0
BBX 16 12 0 -2
BITMAP
7fc0
7fe4
ca24
8a3f
8a21
8be0
f9c0
7800
0800
1800
3000
6000
ENDCHAR
STARTCHAR bWu/bW
ENCODING 5049
SWIDTH 96 0
DWIDTH 16 0
BBX 14 11 0 -2
BITMAP
0e00
1f00
31b0
31b0
31fc
318c
3180
3180
3180
3180
3180
ENDCHAR
STARTCHAR GWu/GW
ENCODING 5050
SWIDTH 96 0
DWIDTH 14 0
BBX 12 14 0 -2
BITMAP
c300
7e00
0000
7c00
c6c0
c6c0
07f0
0630
0600
0e00
0c00
0c00
0c00
0c00
ENDCHAR
STARTCHAR fWu/fW
ENCODING 5051
SWIDTH 96 0
DWIDTH 14 0
BBX 12 11 0 -2
BITMAP
0600
02c0
06c0
0ff0
1830
3000
7800
cc00
c440
7fc0
1f40
ENDCHAR
STARTCHAR pWu/pW
ENCODING 5052
SWIDTH 96 0
DWIDTH 13 0
BBX 11 12 0 -2
BITMAP
6180
7f80
ffc0
ccc0
0c00
0d80
0d80
0fe0
0c60
0c00
0c00
0c00
ENDCHAR
STARTCHAR Ornament
ENCODING 65008
SWIDTH 96 0
DWIDTH 14 0
BBX 12 12 0 0
BITMAP
c630
6660
30c0
1980
0f00
c630
cf30
1980
30c0
6060
c630
8610
ENDCHAR
STARTCHAR Eritrea/Ethiopia
ENCODING 65009
SWIDTH 96 0
DWIDTH 14 0
BBX 12 12 0 0
BITMAP
0c00
1c00
1600
3300
6180
6180
c100
c1f0
6070
30c0
1f80
0f00
ENDCHAR
STARTCHAR Inverted-Eritrea/Ethiopia
ENCODING 65010
SWIDTH 96 0
DWIDTH 14 0
BBX 12 12 0 0
BITMAP
0c00
0c00
1e00
3f00
3f80
7f80
ff00
fff0
7ff0
3fc0
1f80
0f00
ENDCHAR
STARTCHAR Africa
ENCODING 65011
SWIDTH 96 0
DWIDTH 14 0
BBX 12 12 0 0
BITMAP
3e00
7f00
e180
c1d0
c0f0
7860
0cc0
0c80
0d80
0580
0700
0700
ENDCHAR
STARTCHAR Inverted-Africa
ENCODING 65012
SWIDTH 96 0
DWIDTH 14 0
BBX 12 12 0 0
BITMAP
3f00
7f00
ff80
ffd0
fff0
1fe0
0fc0
0f80
0f80
0f80
0700
0600
ENDCHAR
STARTCHAR wWe
ENCODING 65013
SWIDTH 96 0
DWIDTH 13 0
BBX 11 12 0 0
BITMAP
3fc0
76e0
c660
c660
cc60
eec0
7f80
0c00
0fc0
1d60
19c0
1800
ENDCHAR
STARTCHAR wWi
ENCODING 65014
SWIDTH 96 0
DWIDTH 14 0
BBX 12 12 0 0
BITMAP
3fc0
76e0
c660
c660
cce0
ef80
7f60
0c60
0fe0
1c30
1830
1800
ENDCHAR
STARTCHAR wWa
ENCODING 65015
SWIDTH 96 0
DWIDTH 13 0
BBX 11 13 0 -2
BITMAP
3fc0
76e0
c660
c660
cc60
eec0
7f80
0c00
0c00
1c00
1800
7e00
c300
ENDCHAR
STARTCHAR wWE
ENCODING 65016
SWIDTH 96 0
DWIDTH 13 0
BBX 11 13 0 -2
BITMAP
3fc0
76e0
c660
c660
cc60
eec0
7f80
0c00
0c00
1f00
1980
7f00
c000
ENDCHAR
STARTCHAR wWu/wW
ENCODING 65017
SWIDTH 96 0
DWIDTH 18 0
BBX 16 12 0 0
BITMAP
3fc0
76e0
c660
c66c
cc6c
eeff
7f83
0c00
0c00
1c00
1800
1800
ENDCHAR
STARTCHAR Ethiopic-Gemination
ENCODING 65018
SWIDTH 96 0
DWIDTH 18 0
BBX 16 2 0 16
BITMAP
0c30
0c30
ENDCHAR
STARTCHAR Ethiopic-Sarcasm-Mark
ENCODING 65019
SWIDTH 96 0
DWIDTH 8 0
BBX 6 12 0 -1
BITMAP
60
60
00
60
60
60
60
60
60
60
60
60
ENDCHAR
STARTCHAR Ethiopic-Point
ENCODING 65020
SWIDTH 96 0
DWIDTH 6 0
BBX 4 3 0 -1
BITMAP
60
f0
60
ENDCHAR
STARTCHAR Ethiopic-Left-Quote
ENCODING 65021
SWIDTH 96 0
DWIDTH 9 0
BBX 7 5 0 3
BITMAP
3600
6c00
d800
6c00
3600
ENDCHAR
STARTCHAR Ethiopic-Right-Quote
ENCODING 65022
SWIDTH 96 0
DWIDTH 9 0
BBX 7 5 0 3
BITMAP
d800
6c00
3600
6c00
d800
ENDCHAR
STARTCHAR Ethiopic-Sylized-Question-Mark
ENCODING 65023
SWIDTH 96 0
DWIDTH 8 0
BBX 6 12 0 -1
BITMAP
f0
18
0c
0c
0c
3c
30
20
20
00
60
60
ENDCHAR
ENDFONT
